<?xml version="1.0" encoding="utf-8"?>
<!-- Generator: Adobe Illustrator 24.2.1, SVG Export Plug-In . SVG Version: 6.00 Build 0)  -->
<svg version="1.1" id="Calque_1" xmlns="http://www.w3.org/2000/svg" xmlns:xlink="http://www.w3.org/1999/xlink" x="0px" y="0px"
	 viewBox="0 0 182.5 140.8" style="enable-background:new 0 0 182.5 140.8;" xml:space="preserve">
<style type="text/css">
	.st0{fill:#F2F2F2;}
</style>
<g>
	<g>
		<path class="st0" d="M83.1,74.3v-47h47v47c0,17.3-3.1,31.2-9.2,41.8c-6.1,10.6-15.8,18.8-29.1,24.6l-11.5-17.6
			c8.7-3.8,15.1-9.4,19.2-16.8c4.1-7.4,6.4-18.1,6.9-32H83.1z"/>
	</g>
	<g>
		<path class="st0" d="M135.5,74.3v-47h47v47c0,17.3-3.1,31.2-9.2,41.8c-6.1,10.6-15.8,18.8-29.1,24.6l-11.5-17.6
			c8.7-3.8,15.1-9.4,19.2-16.8c4.1-7.4,6.4-18.1,6.9-32H135.5z"/>
	</g>
</g>
<g>
	<g>
		<path class="st0" d="M48.6,32.5v23h-23v-23c0-8.4,1.5-15.3,4.5-20.5c3-5.2,7.7-9.2,14.2-12l5.6,8.6c-4.3,1.9-7.4,4.6-9.4,8.2
			c-2,3.6-3.1,8.8-3.4,15.6H48.6z"/>
	</g>
	<g>
		<path class="st0" d="M23,32.5v23H0v-23C0,24.1,1.5,17.2,4.5,12c3-5.2,7.7-9.2,14.2-12l5.6,8.6c-4.3,1.9-7.4,4.6-9.4,8.2
			c-2,3.6-3.1,8.8-3.4,15.6H23z"/>
	</g>
</g>
</svg>
