<?xml version="1.0" encoding="utf-8"?>
<!-- Generator: Adobe Illustrator 24.2.1, SVG Export Plug-In . SVG Version: 6.00 Build 0)  -->
<svg version="1.1" id="Calque_1" xmlns="http://www.w3.org/2000/svg" xmlns:xlink="http://www.w3.org/1999/xlink" x="0px" y="0px"
	 viewBox="0 0 1922.6 640.3" style="enable-background:new 0 0 1922.6 640.3;" xml:space="preserve">
<style type="text/css">
	.st0{fill:#E6E6E6;}
</style>
<g id="_x38_gmI4u_4_">
	<g>
		<path class="st0" d="M1270.2,360.4c12.8-1,14.7,6.5,12.8,16.6c-1.4,7.7-5.7,14.4-12.3,17.9c-12,6.3-6.8,12.3-1.3,19.4
			c15.7,19.9,32.3,39.2,50.4,57.1c5.5,5.4,6.9,12.9,6.2,20.8c-1.9,19.9-3.6,39.9-5.2,59.8c-0.9,12.2-6.9,19-19.3,19.4
			c-39.5,1.3-79.1,1.2-118.6-0.3c-12.8-0.5-17.7-7.4-17.9-19.9c-0.2-14.2,4-28.3-0.6-42.9c-1.9-6-2.8-8.3-9.1-8.1
			c-4.2,0.1-10,2.2-11.8-4.2c-1.2-4.5-0.4-8,3.9-12c6.8-6.4,2.2-15.6,1.7-23.5c-0.2-2.8-2.9-2.6-5.5-1.5c-4,1.9-6.4,3.5-6.1,9.1
			c1.9,30.6,5.8,61.5,3.8,91.9c-1.6,23.6-4.3,47.1-2.1,72.6c-7-3.6-5.6-7.7-5.7-10.9c-1.1-23.2,0.2-46.8-3.4-69.7
			c-5.1-32.1-5.7-64.4-9-96.5c-1.9-18.8,1.2-38.1,2.2-57.1c0.4-7.9,0.7-15.2-10.7-14.4c-5.3,0.4-7.2-3.5-7.6-8.1
			c-0.4-4.6-0.7-9.3-0.6-13.9c0.3-19,1.7-37.7-22.3-45.8c-9.2-3.1-12.9-14.1-18.7-24.4c-2.7,10.1-8.1,9.9-15.9,9.8
			c-11.5-0.1-23.8-5.3-34.9,2.6c-6,4.3-8.4,9.5-10,17c-3.6,16.4-1.2,34.8-15.1,48.2c-10.2,9.9-13.6,9.9-22.2-2.2
			c-5,4.8,4.1,13.8-2.9,15.9c-10,3.1-21,3.2-31.6,4.4c-1.1,0.1-3-0.7-3.4-1.6c-7.3-18.7-11.8-6-17,1.3c-5.1,7.2-15.4,6.6-20.2-2.3
			c-3.6-6.6-7.6-8.1-14.4-7.2c-55.8,6.9-111.7,13.8-167.6,20.2c-9.1,1-14.5,2.9-14.6,13.8c0,10.1-8,12.5-13.9,5.9
			c-15.4-17.2-33.7-11.9-52.2-9.6c-77.6,9.5-155.2,18.6-232.8,27.8c-28.2,3.4-56.3,7-84.5,10c-8.8,0.9-12.8,3.7-10.4,13.1
			c0.8,3.2,2.3,7.9-3,9.4c-4.4,1.3-8-0.3-10.9-4.1c-9.5-12.2-20.9-18.2-37.5-16c-51.1,6.9-102.3,13.1-153.6,18.3
			c-9.6,1-19.3,1.7-28.9,3c-6.6,0.9-14.4-1.2-19.1,8c-2.7,5.3-8.5-1.8-15.3-1.8c8.8-9.9,17.5-15.1,28.3-17.1
			c69.9-13.1,139.8-26.4,209.7-39.4c8.4-1.6,14.4-5,18.2-12.9c3.4-7.1,8.9-10,15.3-3.2c4.9,5.2,10.4,2.8,15.6,1.8
			c95.3-18.9,190.5-38.7,286-56.5c19.8-3.7,40.8-0.4,61.3-0.9c4.5-0.1,12.9,3,13-3c0.1-7.2-8.8-4.9-13.7-5
			c-25.6-0.5-51.1-0.4-76.7-3.2c30.1,0.1,60.1,0.3,90.2,0.4c0.1-1.6,0.2-3.1,0.2-4.7c-13.7-0.7-27.5-2.2-41.2-2.1
			c-44.2,0.5-88.3-0.1-132.4-0.6c-41.8-0.4-83.7,1.4-125.6,2.1c-24.6,0.4-49.1,0.7-73.7,0.4c-9.9-0.1-17.7,0.5-18.3,12.9
			c-0.1,2.5-2.3,5-3.8,7.4c-2.2,3.4-5.7,3.6-8.6,2c-4.2-2.3-2.8-6.4-1.3-9.8c3.3-7.3,5.7-13.2-6.8-13.1c-60,0.4-120.1,0.3-180.1,0.4
			c-20,0-40-0.2-60,0.4c-9.8,0.3-18-2.8-26.9-7.6c14.4-13.6,31.1-3.8,45.9-6.6c10.7,21.7,30.1,10.1,45.2,10.3
			c52.1,0.8,104.2-0.8,156.4-1.3c135.8-1.4,271.6-2.7,407.4-4.3c24.9-0.3,49.5-2.9,74.6,1c11.7,1.8,24.6-3.8,36.9-6.2
			c36.1-7,72.3-13.2,108.1-21.5c23-5.3,45.9-11.4,69.3-15c2.8-0.4,6-2.1,8.2-1.2c15.8,6.3,16.2-5.5,18.7-15.2
			c1.4-5.6-0.3-12.7,9.4-13.8c3.1-0.4,2.5-7.6-0.2-11.1c-3.2-4.1-5.1-1.7-8.5,1.1c-12.2,9.8-26.5,2.4-39.6,4.5
			c-1.3-5,6.7-4.4,3.8-8.2c-2.2-2.8-6.4-1.7-8.7,0.8c-4.7,5-10.8,6.4-16.6,5.1c-21.2-4.9-42,0-63,0.8c-30.1,1.2-60.2,3-90.2,4.9
			c-14.8,0.9-29.6,2.5-44.4,4.2c-3.4,0.4-9,0-8.9,4.7c0.2,6.3,6.3,3.5,9.9,4.1c2.7,0.4,5.5,0.1,8.4,1c-8.3,3.7-18.1,3.1-24.5,11.7
			c-2.1,2.9-10.3,3.5-14.2-0.5c-7.2-7.4-15.9-6.7-24.7-6.2c4.7-2.6,9.8-2.8,14.9-3.3c2.7-0.2,6.5-0.4,6.5-3.8c0-4.6-4.4-3.8-7.4-4
			c-2.8-0.2-5.6-0.2-8.4,0.1c-37,3-74.1,6-111.1,9c-72.7,5.9-145.4,11.7-218.1,17.7c-14.3,1.2-28.6,2.8-42.9,4.1
			c3.9,3,7.6,3.2,11.2,3c25-1.6,50-3.4,75-5c43.6-2.8,87.2-4.8,130.7-8.4c50-4.2,99.9-8.4,150.1-9.6c-22.3,4.6-45,5.8-67.6,7.4
			c-59.4,4.2-118.8,7.5-178.2,11.3c-38,2.5-76.5,2.4-113.7,9.2c-15.8,2.9-30.8,1.4-46,2.6c-56.1,4.4-112.3,7.6-168.4,11.2
			c-5.5,0.4-11,0-16.6-1.2c48.3-3.8,96.5-7.6,144.8-11.5c15.3-1.2,30.6-3.4,45.9-3.5c9.5-0.1,12.6-5.1,13-12.4
			c0.3-5.8,1.8-8.5,7.8-8.8c5.9-0.3,6.9,1.3,7.2,7.8c0.3,6.6,8.5,3.3,12.8,2.9c32-2.5,63.9-5.5,95.9-8.3
			c88-7.7,176.1-15.2,264.1-23.1c8.2-0.7,19.5,2.8,20.4-12.5c0.3-5,13.5-3.9,14.8,2c1.6,7.4,6,7.3,11.3,6.8
			c59.8-5.2,119.6-10.5,179.4-15.6c6-0.5,10.3-3.6,15.1-7c-17.6-12.1-38.5-13.3-58.1-18.1c-43.3-10.8-86.6-22-130.4-30.1
			c-32.3-5.9-63.7-14.9-95.3-22.8c-95.7-23.9-193.1-40.5-288.6-65.1C238.1,64.9,146.5,45.9,55.5,24.8c-4.4-1-9.1-1.2-13.6-1.8l0,0
			c20.7-2.2,40.4,4.2,60.3,7.9C138.6,37.8,175,45.3,212,50c-13.1-2.9-26.2-5.9-39.3-8.6c-29.1-6.1-58.3-11.9-87.5-18.1
			C79.1,22,72.2,22,69.2,14.2c-1.3-3.4-5-4.4-6.8,0.7c-1,2.9-3.4,3.5-5.5,1.8c-1.1-0.8-1-3.3-1.1-5c-0.2-2.7,1-4.6,4-4.4
			c2.8,0.2,5.5,0.8,8.2,1.3C135.3,21,202.2,34.9,269.7,45.3C404.6,65.8,538,93.8,672.4,116.8c69.9,12,139.5,26.2,209.5,37.8
			c22.4,3.7,45.1,5.7,67.3,10.5c14.8,3.2,29.4,7.9,44.1,11.6c10.4,2.7,7.6,10,6.1,16.7c-4.2,19.1,2.1,35.1,14.4,49.1
			c4.4,5,9.2,7.1,11.9-2c3.7-12.8,13.8-13.5,24.6-12.4c3.2,0.3,6.3,2,9.5,2.1c5.5,0.2,10.2-3.1,12.9-7c2.6-3.7-2.3-6.5-4.5-9.1
			c-16.6-19.5-31.5-40.9-50.5-57.7c-15.4-13.6-29.8-27.5-42.8-43.2c-4.1-4.9-10.6-10.4-2.9-16.4c7.4-5.9,11.7,1.4,15.8,6.3
			c30.7,36.4,53.8,78.9,88.8,111.9c4.9,4.6,8,12.1,17,8.3c8.5-3.6,5.4-11,5.2-17c-0.6-25.2,2.1-50.2,3.5-75.2
			c0.2-4.1,0.1-8.4,5.6-9.8c19.8-5.2,39.2-12.3,60.4-9.5c9.2,1.2,18.3,0.6,26.1,7.4c4.9,4.2,12,3.1,17.3,1.1c5.3-2,2.4-8.2,2.5-12.6
			c0.2-13.4-1.7-26.8,2.7-40.1c1.8-5.4-0.5-10-5.5-14.3c-9.5-8.2-8.5-18.9,0.9-27.6c10.3-9.5,25.8-8.3,34.6,2.7
			c6.9,8.6,5.5,20-4.8,26.3c-5.5,3.4-5.8,6.1-2.1,9.6c11.5,10.8,9.3,24.9,10,38.3c1.1,19.2,0.9,19.2,20.3,19.4
			c28.6,0.2,28.4,0.2,29.9,28.1c0.5,8.5-0.8,17.4,3.9,26.5c6.7-9,4.9-18.8,6.4-27.7c8-47.7,30.4-71,78.8-78.1
			c40.3-5.9,77.2,2.7,106.7,32.4c27.3,27.4,25.3,60.5-3.1,86.5c-11,10.1-23,18.3-37.6,22.6c9.9,15.8,25.7,21.7,38.6,31.2
			c5.6,4.1,11.1,8.7,15.5,13.9c35.4,41.8,15.8,80.6-27.7,104.2c-10.4,5.7-22.7,8.9-34.5,10.8c-14.9,2.3-17.2,11.6-14.1,22.8
			c3.1,11.2-2.3,13.2-10.8,14.2c-42.9,4.9-89.7-25.1-101.9-66.3c-2.4-8.2-12.9-12.1-9.7-23.6c2.2-8-0.5-17.5-0.7-22.2
			c3.4,14.2-7.8,15.1-21.3,14.9c-7.6-0.1-15.7-2.5-23.1,1.5c3.7,7,14.3,5.7,17.2,14.7c0.9,2.8,7,3.2,5.3-3.7
			c-1.3-5.6,1.7-8.3,6.8-7.2c4.1,0.9,10.1,1.1,9.8,7.6c-0.9,18.5-5.4,36.6-4.9,55.2c0.1,3.4-4.2,2.8-6.9,2.9c-3,0.1-4.2-1.4-3.8-4.3
			c0.1-0.9,0.3-1.8,0.3-2.8c1-27.2,1-27.2-25.4-34.4c-2.2-0.6-4.3-1.4-6.5-2.2c0.1,10,6.1,16.2,13.4,21.6c-7.3,4.1-7.3,4.1,6,17.5
			C1280.3,370.3,1274.2,365.8,1270.2,360.4z M709.5,354.1c-5.6,2.6-9-1.7-13.1-1.6c-1.4,0.1-3,1.8-4.1,3.2c-1,1.1-0.8,2.5,0.9,3.1
			c9.2,3.4,4.4,4.7-0.9,5.3c-9.2,1-18.2-1.3-27.6,0.2c-76.2,11.7-152,25.1-227.7,39.5c-46,8.7-92.4,15.4-138.2,25.7
			c-22.6,5.1-46.7,6.2-70,10.2c-21.5,3.7-43.4,5.9-64.2,13.6c2.9,1.1,5.6,1.4,8.3,1.1c47.8-6.5,95.6-13,143.3-19.6
			c75.5-10.4,151.1-20.4,226.5-31.3c47.3-6.8,95-11.4,142-21.2c11.2-2.3,25.4-6.2,34-1.5c9.2,5,16.5,4.8,25.1,3.9
			c6.9-0.7,13.9-1.6,20.7-2.7C815,374.1,866,371,915.8,358.7c-3.1-7.9-12.1-2.2-19.2-9.8c21.7,0.1,40.3,0.2,60.8,0.3
			c-12.9-11.2-25.9-10.6-38.9-10.1c-7,0.3-13.9,1.1-20.9,1.1c-60.8-0.2-121.7-0.5-182.5-0.6c-4.3,0-9.8-1.8-12.5,3.7
			C699.4,349.9,708.5,349.1,709.5,354.1z M1142.6,411.8c0,7.3-0.3,12.4,0,17.5c0.2,3.5-1,8.3,4,9.3c4.9,1,12.7,2.9,14.2-1.7
			c3.4-10.2,10.9-6.6,17-7.3c5.5-0.6,11.1-0.3,16.7-0.1c10.6,0.2,14.2-8.1,16.9-15.6c3.4-9.7-6.5-8-11.1-10.2c-4.3-2-8.9-4-11.3-7.8
			c-10.3-17-26.8-10.8-41.4-11.3c-2.6-0.1-7.8,1.5-1.2,4.9c0.9,0.4,4.8,0.8,1.6,2C1135.3,396.5,1145.3,406.8,1142.6,411.8z
			 M807.1,330c4.1,0.3,8.2,0.6,12.3,1c44.8,4.3,89.6-1.1,134.4-0.7c4.1,0,9.5-0.8,12.1,1.4c17.2,14.6,11.9-1.5,12.5-9
			c0.4-4.6-0.2-9.3-0.2-14c0.1-9.1-7.3-9.7-11-6c-9,9-20.2,8.7-30.9,9.7c-11,1-21.6,1.8-32.7,4.4c-19.9,4.7-41.4,0.2-62.4,3.9
			C829.6,322.7,818.1,324.6,807.1,330z M728,153.6c1.3,4.8,5.5,4.3,8.9,5.1c31.8,6.7,63.7,12.7,95.3,20.2
			c46,10.8,93.4,14.9,138.3,30.7c3,1,7.6,3.2,8.9-2.8c1.2-5.1-0.7-7.9-6-8.7c-7.8-1.1-15.6,0-23.4-1.7
			c-69-14.6-138.2-28.7-207.3-42.8C738,152.6,733.1,149.7,728,153.6z M1171,476.1c8.8-10.9,17.4-19.3,22.4-30.9
			C1165.9,441.5,1164.7,443.1,1171,476.1z M363.9,81.3c-5.6-5.1-10.6-4.2-14.5-5.9c-15.8-6.8-36.2,0-48.8-16.3
			c-0.3-0.4-3.3,0.9-4.6,1.9c-1.8,1.3-1.6,3.5,0,4.7c2.2,1.6,4.6,3.3,7.2,3.8C322.6,73.4,342,77.1,363.9,81.3z M712.5,328.9
			c-3.7,0.3-9.6-3.3-9.8,3.3c-0.2,6,6.1,4.1,9.7,4.1c4.5,0,12.5,2.3,12.4-3.8C724.8,325.8,716.7,330.6,712.5,328.9z M1168.2,555.8
			c9.4-14.7,10-17.2,6.7-26.1C1168.7,539,1168.4,540.2,1168.2,555.8z M1240,225.5c16.5,3.9,20.8,1,21.9-12.8
			C1256.3,219,1249.3,221.1,1240,225.5z M1169.4,436.8c9.8,2.9,19.7,3,29.6,0C1189.2,433.9,1179.4,433.6,1169.4,436.8z
			 M1134.7,371.1c0.1-16.4,0.1-32.9,0.2-49.3C1132.8,338.4,1136,354.7,1134.7,371.1z"/>
		<path class="st0" d="M1523.7,334c0.8,11-1.5,21-8.4,31.9C1509.1,351.3,1518.8,343.4,1523.7,334z"/>
		<path class="st0" d="M1501.8,208.5c0.3-9.6,0.2-19.3,9.4-26.9c1.7,10.7-1.2,19.4-7,27.3C1503.9,209.2,1502.7,208.7,1501.8,208.5z"
			/>
		<path class="st0" d="M41.9,23C41,15.2,31,17,28.6,9.9c5.7-3,13.6-6.3,17.6-2.7C51.2,11.8,42.6,17.3,41.9,23
			C41.8,23,41.9,23,41.9,23z"/>
	</g>
</g>
<line class="st0" x1="961.3" y1="-169.7" x2="961.3" y2="-0.7"/>
</svg>
