<?xml version="1.0" encoding="utf-8"?>
<!-- Generator: Adobe Illustrator 24.2.1, SVG Export Plug-In . SVG Version: 6.00 Build 0)  -->
<svg version="1.1" id="Calque_1" xmlns="http://www.w3.org/2000/svg" xmlns:xlink="http://www.w3.org/1999/xlink" x="0px" y="0px"
	 viewBox="0 0 1922.6 789.3" style="enable-background:new 0 0 1922.6 789.3;" xml:space="preserve">
<style type="text/css">
	.st0{fill:#E6E6E6;}
</style>
<g id="_x38_gmI4u_4_">
	<g>
		<path class="st0" d="M1598.8,446.7c16.1-1.3,18.5,8.1,16.1,20.9c-1.8,9.8-7.1,18.1-15.5,22.5c-15,8-8.6,15.5-1.6,24.4
			c19.8,25.1,40.6,49.3,63.4,71.8c6.9,6.8,8.7,16.2,7.8,26.1c-2.4,25.1-4.6,50.2-6.5,75.3c-1.2,15.3-8.7,23.9-24.3,24.4
			c-49.8,1.6-99.6,1.5-149.4-0.4c-16.1-0.6-22.3-9.3-22.5-25c-0.2-17.9,5-35.6-0.7-53.9c-2.4-7.6-3.6-10.5-11.4-10.2
			c-5.3,0.2-12.6,2.8-14.8-5.3c-1.6-5.7-0.5-10.1,4.9-15.2c8.6-8.1,2.8-19.6,2.1-29.6c-0.2-3.5-3.7-3.3-6.9-1.8
			c-5,2.3-8.1,4.4-7.6,11.5c2.5,38.6,7.3,77.4,4.8,115.7c-2,29.7-5.4,59.3-2.7,91.4c-8.8-4.5-7-9.7-7.2-13.8
			c-1.4-29.3,0.3-59-4.3-87.7c-6.5-40.3-7.1-81-11.3-121.5c-2.4-23.6,1.5-47.9,2.8-71.9c0.5-9.9,0.9-19.2-13.5-18.2
			c-6.7,0.5-9.1-4.4-9.5-10.2c-0.5-5.8-0.8-11.7-0.7-17.5c0.4-23.9,2.1-47.5-28.1-57.6c-11.6-3.9-16.2-17.7-23.5-30.7
			c-3.3,12.7-10.3,12.5-20,12.4c-14.5-0.2-30-6.7-44,3.2c-7.6,5.4-10.5,11.9-12.6,21.4c-4.5,20.6-1.5,43.8-19,60.7
			c-12.9,12.4-17.2,12.5-27.9-2.7c-6.2,6.1,5.2,17.3-3.6,20c-12.6,3.9-26.4,4-39.8,5.6c-1.4,0.2-3.8-0.9-4.2-2
			c-9.2-23.5-14.8-7.5-21.4,1.7c-6.4,9-19.3,8.3-25.4-2.9c-4.5-8.3-9.5-10.2-18.1-9.1c-70.3,8.7-140.6,17.3-210.9,25.4
			c-11.4,1.3-18.3,3.7-18.4,17.3c0,12.8-10,15.7-17.5,7.4c-19.4-21.7-42.4-15-65.7-12.1c-97.7,11.9-195.4,23.4-293.1,35
			c-35.5,4.2-70.9,8.8-106.4,12.5c-11,1.2-16.1,4.7-13.1,16.5c1,4,2.9,9.9-3.8,11.8c-5.6,1.6-10.1-0.4-13.8-5.1
			c-11.9-15.4-26.3-23-47.2-20.1c-64.3,8.7-128.8,16.5-193.4,23c-12,1.2-24.3,2.1-36.3,3.7c-8.3,1.1-18.1-1.6-24,10
			c-3.4,6.7-10.7-2.2-19.3-2.3c11.1-12.4,22-19,35.6-21.6c88-16.5,176-33.3,264-49.6c10.6-2,18.1-6.3,22.9-16.3
			c4.3-8.9,11.2-12.6,19.3-4.1c6.2,6.5,13.1,3.6,19.7,2.3c120-23.8,239.8-48.7,360-71.2c24.9-4.7,51.4-0.6,77.2-1.1
			c5.7-0.1,16.3,3.8,16.3-3.8c0.1-9-11.1-6.2-17.3-6.3c-32.2-0.6-64.4-0.5-96.6-4.1c37.9,0.2,75.7,0.3,113.6,0.5
			c0.1-2,0.2-3.9,0.3-5.9c-17.3-0.9-34.6-2.8-51.8-2.6c-55.6,0.6-111.2-0.2-166.7-0.7c-52.7-0.5-105.4,1.8-158.1,2.6
			c-30.9,0.5-61.9,0.9-92.8,0.5c-12.4-0.2-22.2,0.6-23,16.3c-0.2,3.2-2.9,6.3-4.8,9.3c-2.7,4.3-7.2,4.5-10.9,2.5
			c-5.3-2.9-3.6-8.1-1.7-12.4c4.1-9.2,7.2-16.6-8.5-16.5c-75.6,0.5-151.2,0.4-226.7,0.5c-25.2,0-50.4-0.3-75.6,0.5
			c-12.3,0.4-22.6-3.6-33.9-9.6c18.1-17.1,39.1-4.8,57.8-8.4c13.5,27.3,38,12.7,56.9,13c65.6,1,131.2-1,196.8-1.7
			c171-1.8,341.9-3.4,512.9-5.5c31.3-0.4,62.3-3.7,93.9,1.2c14.7,2.3,31-4.7,46.5-7.8c45.4-8.8,91.1-16.6,136.1-27
			c29-6.7,57.7-14.3,87.2-18.8c3.5-0.5,7.5-2.6,10.3-1.5c19.8,7.9,20.4-6.9,23.5-19.2c1.8-7.1-0.4-15.9,11.8-17.3
			c3.9-0.4,3.1-9.5-0.3-14c-4-5.2-6.4-2.1-10.7,1.4c-15.3,12.3-33.3,3.1-49.8,5.7c-1.6-6.3,8.4-5.5,4.8-10.4
			c-2.7-3.6-8.1-2.1-11,0.9c-5.9,6.3-13.5,8.1-20.9,6.4c-26.7-6.1-52.8,0-79.3,1c-37.9,1.5-75.7,3.8-113.6,6.2
			c-18.7,1.2-37.3,3.2-55.9,5.3c-4.3,0.5-11.4,0.1-11.2,5.9c0.2,8,7.9,4.4,12.5,5.1c3.4,0.6,6.9,0.1,10.6,1.3
			c-10.5,4.7-22.8,3.9-30.8,14.7c-2.7,3.6-13,4.4-17.9-0.7c-9.1-9.3-20-8.4-31.1-7.8c5.9-3.2,12.3-3.6,18.7-4.2
			c3.4-0.3,8.2-0.5,8.2-4.8c0-5.8-5.5-4.7-9.4-5c-3.5-0.3-7-0.2-10.5,0.1c-46.6,3.7-93.3,7.6-139.9,11.3
			c-91.5,7.4-183,14.8-274.5,22.3c-18,1.5-36,3.5-53.9,5.2c5,3.7,9.5,4,14.1,3.7c31.5-2,62.9-4.2,94.4-6.2
			c54.8-3.5,109.7-6,164.5-10.6c62.9-5.3,125.8-10.5,188.9-12.1c-28.1,5.8-56.6,7.3-85.1,9.3c-74.7,5.2-149.5,9.4-224.3,14.3
			c-47.8,3.1-96.3,3.1-143.1,11.6c-19.9,3.6-38.8,1.8-58,3.3c-70.6,5.5-141.4,9.6-212.1,14.1c-6.9,0.4-13.9,0-21-1.5
			c60.7-4.8,121.5-9.6,182.2-14.5c19.3-1.5,38.5-4.3,57.8-4.4c11.9-0.1,15.8-6.4,16.4-15.6c0.4-7.3,2.3-10.7,9.8-11
			c7.5-0.4,8.6,1.6,9.1,9.8c0.4,8.3,10.6,4.1,16.1,3.7c40.3-3.1,80.5-6.9,120.7-10.4c110.8-9.7,221.7-19.2,332.5-29.1
			c10.3-0.9,24.6,3.6,25.7-15.7c0.4-6.3,17-5,18.6,2.5c2,9.3,7.5,9.1,14.2,8.6c75.3-6.5,150.5-13.2,225.8-19.6
			c7.6-0.6,13-4.5,19-8.8c-22.1-15.3-48.5-16.7-73.1-22.8c-54.5-13.6-109-27.8-164.2-37.8c-40.7-7.4-80.2-18.8-120-28.8
			c-120.5-30.1-243.1-51-363.4-82c-114-29.3-229.2-53.2-343.8-79.8c-5.6-1.3-11.4-1.5-17.2-2.3l-0.1,0c26.1-2.7,50.8,5.2,75.9,9.9
			c45.9,8.6,91.7,18.2,138.3,24c-16.5-3.6-33-7.4-49.5-10.8c-36.7-7.6-73.4-15-110.1-22.8c-7.7-1.6-16.3-1.6-20.1-11.4
			c-1.6-4.2-6.3-5.5-8.6,0.9c-1.3,3.6-4.3,4.3-6.9,2.3c-1.3-1-1.3-4.1-1.4-6.3c-0.2-3.4,1.3-5.8,5-5.5c3.5,0.3,6.9,1,10.4,1.6
			C170,19.3,254.3,36.9,339.3,49.9C509,75.8,677,111,846.2,140c88,15.1,175.6,32.9,263.7,47.6c28.1,4.7,56.7,7.2,84.7,13.3
			c18.7,4.1,37,9.9,55.5,14.7c13.1,3.4,9.5,12.5,7.7,21c-5.3,24,2.6,44.2,18.2,61.8c5.5,6.2,11.6,9,14.9-2.5
			c4.7-16.1,17.4-17,30.9-15.6c4,0.4,7.9,2.5,12,2.7c6.9,0.2,12.8-3.9,16.3-8.9c3.2-4.6-2.9-8.1-5.7-11.4
			c-20.8-24.6-39.7-51.5-63.6-72.6c-19.4-17.1-37.5-34.7-53.9-54.3c-5.1-6.1-13.3-13.1-3.7-20.7c9.3-7.4,14.7,1.8,19.8,7.9
			c38.6,45.9,67.7,99.3,111.8,140.9c6.2,5.8,10.1,15.3,21.4,10.5c10.7-4.6,6.8-13.9,6.6-21.4c-0.8-31.7,2.6-63.2,4.4-94.7
			c0.3-5.2,0.1-10.6,7.1-12.4c24.9-6.6,49.3-15.4,76-12c11.5,1.5,23,0.7,32.8,9.3c6.1,5.3,15.1,3.9,21.8,1.3
			c6.7-2.5,3.1-10.4,3.2-15.8c0.3-16.9-2.1-33.8,3.4-50.5c2.2-6.8-0.6-12.6-6.9-18.1c-11.9-10.3-10.8-23.8,1.2-34.8
			c12.9-12,32.5-10.4,43.6,3.4c8.7,10.8,7,25.1-6,33.1c-6.9,4.3-7.2,7.7-2.6,12c14.4,13.6,11.7,31.4,12.6,48.2
			c1.4,24.2,1.2,24.2,25.5,24.4c36,0.3,35.8,0.3,37.7,35.4c0.6,10.7-1,21.9,4.8,33.4c8.4-11.3,6.1-23.7,8-34.8
			c10-60,38.3-89.4,99.2-98.4c50.7-7.4,97.2,3.4,134.3,40.8c34.3,34.5,31.8,76.1-3.9,108.9c-13.9,12.8-29,23-47.3,28.4
			c12.5,19.9,32.3,27.3,48.6,39.3c7,5.2,13.9,10.9,19.5,17.6c44.5,52.7,19.8,101.4-34.9,131.1c-13.1,7.1-28.6,11.2-43.4,13.6
			c-18.8,3-21.7,14.6-17.7,28.7c3.9,14-2.9,16.6-13.7,17.9c-54,6.2-112.9-31.6-128.3-83.5c-3.1-10.3-16.3-15.2-12.2-29.8
			c2.8-10.1-0.6-22-0.9-28c4.3,17.9-9.8,19-26.9,18.7c-9.6-0.1-19.7-3.1-29.1,1.9c4.7,8.8,18,7.2,21.6,18.5c1.1,3.5,8.8,4,6.7-4.7
			c-1.7-7.1,2.1-10.4,8.6-9c5.2,1.1,12.8,1.4,12.4,9.5c-1.1,23.2-6.8,46.1-6.1,69.5c0.1,4.3-5.2,3.5-8.7,3.7
			c-3.8,0.1-5.3-1.8-4.8-5.4c0.1-1.2,0.4-2.3,0.4-3.5c1.2-34.2,1.2-34.2-32-43.3c-2.8-0.8-5.4-1.8-8.2-2.7
			c0.2,12.6,7.7,20.4,16.9,27.2c-9.2,5.1-9.2,5.1,7.5,22C1611.5,459.1,1603.8,453.4,1598.8,446.7z M893,438.6
			c-7.1,3.3-11.4-2.2-16.4-2c-1.8,0.1-3.8,2.3-5.2,4c-1.2,1.4-1,3.1,1.1,3.9c11.5,4.2,5.5,6-1.1,6.7c-11.5,1.3-22.9-1.6-34.8,0.2
			c-95.9,14.7-191.4,31.6-286.7,49.7c-57.9,11-116.3,19.4-174,32.3c-28.4,6.4-58.8,7.8-88.1,12.8c-27.1,4.6-54.7,7.4-80.9,17.1
			c3.6,1.4,7.1,1.8,10.4,1.4c60.2-8.1,120.3-16.4,180.4-24.6C492.9,527,588,514.4,683,500.6c59.6-8.6,119.6-14.3,178.7-26.7
			c14.1-3,32-7.8,42.8-1.9c11.6,6.3,20.8,6,31.7,4.9c8.7-0.9,17.4-2.1,26.1-3.4c63.4-9.7,127.6-13.6,190.3-29.1
			c-3.9-10-15.3-2.8-24.1-12.3c27.3,0.1,50.7,0.2,76.6,0.3c-16.2-14-32.6-13.4-48.9-12.7c-8.8,0.4-17.5,1.4-26.3,1.3
			c-76.6-0.2-153.2-0.6-229.8-0.7c-5.4,0-12.3-2.2-15.7,4.6C880.2,433.4,891.6,432.5,893,438.6z M1438.1,511.3c0,9.1-0.3,15.6,0,22
			c0.2,4.4-1.2,10.4,5,11.7c6.1,1.2,16,3.6,17.8-2.1c4.2-12.9,13.7-8.3,21.4-9.2c6.9-0.8,14-0.3,21.1-0.2
			c13.4,0.3,17.9-10.1,21.3-19.6c4.3-12.2-8.1-10.1-13.9-12.8c-5.5-2.5-11.3-5-14.2-9.8c-13-21.4-33.7-13.6-52.1-14.2
			c-3.2-0.1-9.9,1.9-1.5,6.1c1.1,0.5,6,1,2.1,2.5C1429,492,1441.5,505.1,1438.1,511.3z M1015.8,408.3c5.2,0.4,10.4,0.8,15.5,1.3
			c56.4,5.4,112.8-1.4,169.2-0.9c5.2,0,12-1,15.3,1.7c21.7,18.4,15-1.9,15.7-11.3c0.5-5.8-0.3-11.7-0.2-17.6
			c0.1-11.5-9.2-12.2-13.8-7.5c-11.3,11.3-25.4,11-38.9,12.2c-13.9,1.2-27.2,2.3-41.2,5.6c-25.1,5.9-52.1,0.3-78.6,4.9
			C1044.1,399.2,1029.6,401.5,1015.8,408.3z M916.2,186.4c1.7,6.1,6.9,5.5,11.2,6.4c40,8.4,80.2,16,120,25.4
			c57.9,13.6,117.6,18.8,174.1,38.6c3.7,1.3,9.5,4,11.2-3.5c1.5-6.4-0.9-10-7.6-10.9c-9.8-1.4-19.6-0.1-29.5-2.2
			c-86.9-18.3-173.9-36.1-261-53.9C928.8,185,922.6,181.4,916.2,186.4z M1473.9,592.2c11-13.7,22-24.2,28.3-38.9
			C1467.4,548.8,1465.9,550.8,1473.9,592.2z M457.8,95.3c-7.1-6.4-13.3-5.3-18.3-7.5c-19.9-8.6-45.5,0.1-61.4-20.6
			c-0.4-0.5-4.1,1.1-5.8,2.3c-2.3,1.7-2,4.4,0,6c2.7,2,5.8,4.1,9.1,4.8C405.8,85.4,430.3,90,457.8,95.3z M896.7,407
			c-4.7,0.3-12.1-4.1-12.3,4.1c-0.2,7.5,7.7,5.2,12.2,5.2c5.7,0.1,15.8,2.9,15.6-4.8C912.1,403.1,901.9,409.1,896.7,407z
			 M1470.3,692.7c11.8-18.5,12.6-21.6,8.5-32.9C1471,671.5,1470.5,673,1470.3,692.7z M1560.8,276.8c20.8,4.9,26.2,1.3,27.6-16.1
			C1581.2,268.6,1572.5,271.3,1560.8,276.8z M1471.8,542.9c12.3,3.6,24.8,3.8,37.2,0C1496.8,539.2,1484.4,538.8,1471.8,542.9z
			 M1428.2,460.2c0.1-20.7,0.2-41.4,0.3-62.1C1425.7,419,1429.8,439.5,1428.2,460.2z"/>
		<path class="st0" d="M1917.8,413.4c1.1,13.8-1.9,26.5-10.6,40.1C1899.4,435.2,1911.7,425.2,1917.8,413.4z"/>
		<path class="st0" d="M1890.3,255.4c0.3-12.1,0.2-24.3,11.8-33.8c2.1,13.5-1.5,24.4-8.9,34.4C1893,256.3,1891.4,255.7,1890.3,255.4
			z"/>
		<path class="st0" d="M52.4,21.9c-1.1-9.8-13.7-7.6-16.7-16.5c7.1-3.7,17.1-8,22.1-3.4C64.2,7.8,53.3,14.7,52.4,21.9
			C52.4,21.9,52.4,21.9,52.4,21.9z"/>
	</g>
</g>
</svg>
