<?xml version="1.0" encoding="utf-8"?>
<!-- Generator: Adobe Illustrator 24.2.1, SVG Export Plug-In . SVG Version: 6.00 Build 0)  -->
<svg version="1.1" id="Calque_1" xmlns="http://www.w3.org/2000/svg" xmlns:xlink="http://www.w3.org/1999/xlink" x="0px" y="0px"
	 viewBox="0 0 789.3 1922.6" style="enable-background:new 0 0 789.3 1922.6;" xml:space="preserve">
<style type="text/css">
	.st0{fill:#E6E6E6;}
</style>
<g id="_x38_gmI4u_1_">
	<g>
		<path class="st0" d="M446.7,323.8c-1.3-16.1,8.1-18.5,20.9-16.1c9.8,1.8,18.1,7.1,22.5,15.5c8,15,15.5,8.6,24.4,1.6
			c25.1-19.8,49.3-40.6,71.8-63.4c6.8-6.9,16.2-8.7,26.1-7.8c25.1,2.4,50.2,4.6,75.3,6.5c15.3,1.2,23.9,8.7,24.4,24.3
			c1.6,49.8,1.5,99.6-0.4,149.4c-0.6,16.1-9.3,22.3-25,22.5c-17.9,0.2-35.6-5-53.9,0.7c-7.6,2.4-10.5,3.6-10.2,11.4
			c0.2,5.3,2.8,12.6-5.3,14.8c-5.7,1.6-10.1,0.5-15.2-4.9c-8.1-8.6-19.6-2.8-29.6-2.1c-3.5,0.2-3.3,3.7-1.8,6.9
			c2.3,5,4.4,8.1,11.5,7.6c38.6-2.5,77.4-7.3,115.7-4.8c29.7,2,59.3,5.4,91.4,2.7c-4.5,8.8-9.7,7-13.8,7.2
			c-29.3,1.4-59-0.3-87.7,4.3c-40.3,6.5-81,7.1-121.5,11.3c-23.6,2.4-47.9-1.5-71.9-2.8c-9.9-0.5-19.2-0.9-18.2,13.5
			c0.5,6.7-4.4,9.1-10.2,9.5c-5.8,0.5-11.7,0.8-17.5,0.7c-23.9-0.4-47.5-2.1-57.6,28.1c-3.9,11.6-17.7,16.2-30.7,23.5
			c12.7,3.3,12.5,10.3,12.4,20c-0.2,14.5-6.7,30,3.2,44c5.4,7.6,11.9,10.5,21.4,12.6c20.6,4.5,43.8,1.5,60.7,19
			c12.4,12.9,12.5,17.2-2.7,27.9c6.1,6.2,17.3-5.2,20,3.6c3.9,12.6,4,26.4,5.6,39.8c0.2,1.4-0.9,3.8-2,4.2
			c-23.5,9.2-7.5,14.8,1.7,21.4c9,6.4,8.3,19.3-2.9,25.4c-8.3,4.5-10.2,9.5-9.1,18.1c8.7,70.3,17.3,140.6,25.4,210.9
			c1.3,11.4,3.7,18.3,17.3,18.4c12.8,0,15.7,10,7.4,17.5c-21.7,19.4-15,42.4-12.1,65.7c11.9,97.7,23.4,195.4,35,293.1
			c4.2,35.5,8.8,70.9,12.5,106.4c1.2,11,4.7,16.1,16.5,13.1c4-1,9.9-2.9,11.8,3.8c1.6,5.6-0.4,10.1-5.1,13.8
			c-15.4,11.9-23,26.3-20.1,47.2c8.7,64.3,16.5,128.8,23,193.4c1.2,12,2.1,24.3,3.7,36.3c1.1,8.3-1.6,18.1,10,24
			c6.7,3.4-2.2,10.7-2.3,19.3c-12.4-11.1-19-22-21.6-35.6c-16.5-88-33.3-176-49.6-264c-2-10.6-6.3-18.1-16.3-22.9
			c-8.9-4.3-12.6-11.2-4.1-19.3c6.5-6.2,3.6-13.1,2.3-19.7c-23.8-120-48.7-239.8-71.2-360c-4.7-24.9-0.6-51.4-1.1-77.2
			c-0.1-5.7,3.8-16.3-3.8-16.3c-9-0.1-6.2,11.1-6.3,17.3c-0.6,32.2-0.5,64.4-4.1,96.6c0.2-37.9,0.3-75.7,0.5-113.6
			c-2-0.1-3.9-0.2-5.9-0.3c-0.9,17.3-2.8,34.6-2.6,51.8c0.6,55.6-0.2,111.2-0.7,166.7c-0.5,52.7,1.8,105.4,2.6,158.1
			c0.5,30.9,0.9,61.9,0.5,92.8c-0.2,12.4,0.6,22.2,16.3,23c3.2,0.2,6.3,2.9,9.3,4.8c4.3,2.7,4.5,7.2,2.5,10.9
			c-2.9,5.3-8.1,3.6-12.4,1.7c-9.2-4.1-16.6-7.2-16.5,8.5c0.5,75.6,0.4,151.2,0.5,226.7c0,25.2-0.3,50.4,0.5,75.6
			c0.4,12.3-3.6,22.6-9.6,33.9c-17.1-18.1-4.8-39.1-8.4-57.8c27.3-13.5,12.7-38,13-56.9c1-65.6-1-131.2-1.7-196.8
			c-1.8-171-3.4-341.9-5.5-512.9c-0.4-31.3-3.7-62.3,1.2-93.9c2.3-14.7-4.7-31-7.8-46.5c-8.8-45.4-16.6-91.1-27-136.1
			c-6.7-29-14.3-57.7-18.8-87.2c-0.5-3.5-2.6-7.5-1.5-10.3c7.9-19.8-6.9-20.4-19.2-23.5c-7.1-1.8-15.9,0.4-17.3-11.8
			c-0.4-3.9-9.5-3.1-14,0.3c-5.2,4-2.1,6.4,1.4,10.7c12.3,15.3,3.1,33.3,5.7,49.8c-6.3,1.6-5.5-8.4-10.4-4.8
			c-3.6,2.7-2.1,8.1,0.9,11c6.3,5.9,8.1,13.5,6.4,20.9c-6.1,26.7,0,52.8,1,79.3c1.5,37.9,3.8,75.7,6.2,113.6
			c1.2,18.7,3.2,37.3,5.3,55.9c0.5,4.3,0.1,11.4,5.9,11.2c8-0.2,4.4-7.9,5.1-12.5c0.6-3.4,0.1-6.9,1.3-10.6
			c4.7,10.5,3.9,22.8,14.7,30.8c3.6,2.7,4.4,13-0.7,17.9c-9.3,9.1-8.4,20-7.8,31.1c-3.2-5.9-3.6-12.3-4.2-18.7
			c-0.3-3.4-0.5-8.2-4.8-8.2c-5.8,0-4.7,5.5-5,9.4c-0.3,3.5-0.2,7,0.1,10.5c3.7,46.6,7.6,93.3,11.3,139.9
			c7.4,91.5,14.8,183,22.3,274.5c1.5,18,3.5,36,5.2,53.9c3.7-5,4-9.5,3.7-14.1c-2-31.5-4.2-62.9-6.2-94.4
			c-3.5-54.8-6-109.7-10.6-164.5c-5.3-62.9-10.5-125.8-12.1-188.9c5.8,28.1,7.3,56.6,9.3,85.1c5.2,74.7,9.4,149.5,14.3,224.3
			c3.1,47.8,3.1,96.3,11.6,143.1c3.6,19.9,1.8,38.8,3.3,58c5.5,70.6,9.6,141.4,14.1,212.1c0.4,6.9,0,13.9-1.5,21
			c-4.8-60.7-9.6-121.5-14.5-182.2c-1.5-19.3-4.3-38.5-4.4-57.8c-0.1-11.9-6.4-15.8-15.6-16.4c-7.3-0.4-10.7-2.3-11-9.8
			c-0.4-7.5,1.6-8.6,9.8-9.1c8.3-0.4,4.1-10.6,3.7-16.1c-3.1-40.3-6.9-80.5-10.4-120.7c-9.7-110.8-19.2-221.7-29.1-332.5
			c-0.9-10.3,3.6-24.6-15.7-25.7c-6.3-0.4-5-17,2.5-18.6c9.3-2,9.1-7.5,8.6-14.2c-6.5-75.3-13.2-150.5-19.6-225.8
			c-0.6-7.6-4.5-13-8.8-19c-15.3,22.1-16.7,48.5-22.8,73.1c-13.6,54.5-27.8,109-37.8,164.2c-7.4,40.7-18.8,80.2-28.8,120
			c-30.1,120.5-51,243.1-82,363.4c-29.3,114-53.2,229.2-79.8,343.8c-1.3,5.6-1.5,11.4-2.3,17.2l0,0.1c-2.7-26.1,5.2-50.8,9.9-75.9
			c8.6-45.9,18.2-91.7,24-138.3c-3.6,16.5-7.4,33-10.8,49.5c-7.6,36.7-15,73.4-22.8,110.1c-1.6,7.7-1.6,16.3-11.4,20.1
			c-4.2,1.6-5.5,6.3,0.9,8.6c3.6,1.3,4.3,4.3,2.3,6.9c-1,1.3-4.1,1.3-6.3,1.4c-3.4,0.2-5.8-1.3-5.5-5c0.3-3.5,1-6.9,1.6-10.4
			c15.5-84.6,33.1-168.9,46.1-253.9c25.9-169.7,61.1-337.7,90-506.9c15.1-88,32.9-175.6,47.6-263.7c4.7-28.1,7.2-56.7,13.3-84.7
			c4.1-18.7,9.9-37,14.7-55.5c3.4-13.1,12.5-9.5,21-7.7c24,5.3,44.2-2.6,61.8-18.2c6.2-5.5,9-11.6-2.5-14.9
			c-16.1-4.7-17-17.4-15.6-30.9c0.4-4,2.5-7.9,2.7-12c0.2-6.9-3.9-12.8-8.9-16.3c-4.6-3.2-8.1,2.9-11.4,5.7
			c-24.6,20.8-51.5,39.7-72.6,63.6c-17.1,19.4-34.7,37.5-54.3,53.9c-6.1,5.1-13.1,13.3-20.7,3.7c-7.4-9.3,1.8-14.7,7.9-19.8
			c45.9-38.6,99.3-67.7,140.9-111.8c5.8-6.2,15.3-10.1,10.5-21.4c-4.6-10.7-13.9-6.8-21.4-6.6c-31.7,0.8-63.2-2.6-94.7-4.4
			c-5.2-0.3-10.6-0.1-12.4-7.1c-6.6-24.9-15.4-49.3-12-76c1.5-11.5,0.7-23,9.3-32.8c5.3-6.1,3.9-15.1,1.3-21.8
			c-2.5-6.7-10.4-3.1-15.8-3.2c-16.9-0.3-33.8,2.1-50.5-3.4c-6.8-2.2-12.6,0.6-18.1,6.9c-10.3,11.9-23.8,10.8-34.8-1.2
			c-12-12.9-10.4-32.5,3.4-43.6c10.8-8.7,25.1-7,33.1,6c4.3,6.9,7.7,7.2,12,2.6c13.6-14.4,31.4-11.7,48.2-12.6
			c24.2-1.4,24.2-1.2,24.4-25.5c0.3-36,0.3-35.8,35.4-37.7c10.7-0.6,21.9,1,33.4-4.8c-11.3-8.4-23.7-6.1-34.8-8
			c-60-10-89.4-38.3-98.4-99.2c-7.4-50.7,3.4-97.2,40.8-134.3c34.5-34.3,76.1-31.8,108.9,3.9c12.8,13.9,23,29,28.4,47.3
			c19.9-12.5,27.3-32.3,39.3-48.6c5.2-7,10.9-13.9,17.6-19.5C369.5-21.5,418.3,3.2,448,57.9c7.1,13.1,11.2,28.6,13.6,43.4
			c3,18.8,14.6,21.7,28.7,17.7c14-3.9,16.6,2.9,17.9,13.7c6.2,54-31.6,112.9-83.5,128.3c-10.3,3.1-15.2,16.3-29.8,12.2
			c-10.1-2.8-22,0.6-28,0.9c17.9-4.3,19,9.8,18.7,26.9c-0.1,9.6-3.1,19.7,1.9,29.1c8.8-4.7,7.2-18,18.5-21.6c3.5-1.1,4-8.8-4.7-6.7
			c-7.1,1.7-10.4-2.1-9-8.6c1.1-5.2,1.4-12.8,9.5-12.4c23.2,1.1,46.1,6.8,69.5,6.1c4.3-0.1,3.5,5.2,3.7,8.7c0.1,3.8-1.8,5.3-5.4,4.8
			c-1.2-0.1-2.3-0.4-3.5-0.4c-34.2-1.2-34.2-1.2-43.3,32c-0.8,2.8-1.8,5.4-2.7,8.2c12.6-0.2,20.4-7.7,27.2-16.9
			c5.1,9.2,5.1,9.2,22-7.5C459.1,311,453.4,318.7,446.7,323.8z M438.6,1029.6c3.3,7.1-2.2,11.4-2,16.4c0.1,1.8,2.3,3.8,4,5.2
			c1.4,1.2,3.1,1,3.9-1.1c4.2-11.5,6-5.5,6.7,1.1c1.3,11.5-1.6,22.9,0.2,34.8c14.7,95.9,31.6,191.4,49.7,286.7
			c11,57.9,19.4,116.3,32.3,174c6.4,28.4,7.8,58.8,12.8,88.1c4.6,27.1,7.4,54.7,17.1,80.9c1.4-3.6,1.8-7.1,1.4-10.4
			c-8.1-60.2-16.4-120.3-24.6-180.4c-13.1-95.1-25.7-190.2-39.4-285.2c-8.6-59.6-14.3-119.6-26.7-178.7c-3-14.1-7.8-32-1.9-42.8
			c6.3-11.6,6-20.8,4.9-31.7c-0.9-8.7-2.1-17.4-3.4-26.1c-9.7-63.4-13.6-127.6-29.1-190.3c-10,3.9-2.8,15.3-12.3,24.1
			c0.1-27.3,0.2-50.7,0.3-76.6c-14,16.2-13.4,32.6-12.7,48.9c0.4,8.8,1.4,17.5,1.3,26.3c-0.2,76.6-0.6,153.2-0.7,229.8
			c0,5.4-2.2,12.3,4.6,15.7C433.4,1042.3,432.5,1030.9,438.6,1029.6z M511.3,484.5c9.1,0,15.6,0.3,22,0c4.4-0.2,10.4,1.2,11.7-5
			c1.2-6.1,3.6-16-2.1-17.8c-12.9-4.2-8.3-13.7-9.2-21.4c-0.8-6.9-0.3-14-0.2-21.1c0.3-13.4-10.1-17.9-19.6-21.3
			c-12.2-4.3-10.1,8.1-12.8,13.9c-2.5,5.5-5,11.3-9.8,14.2c-21.4,13-13.6,33.7-14.2,52.1c-0.1,3.2,1.9,9.9,6.1,1.5
			c0.5-1.1,1-6,2.5-2.1C492,493.6,505.1,481,511.3,484.5z M408.3,906.8c0.4-5.2,0.8-10.4,1.3-15.5c5.4-56.4-1.4-112.8-0.9-169.2
			c0-5.2-1-12,1.7-15.3c18.4-21.7-1.9-15-11.3-15.7c-5.8-0.5-11.7,0.3-17.6,0.2c-11.5-0.1-12.2,9.2-7.5,13.8
			c11.3,11.3,11,25.4,12.2,38.9c1.2,13.9,2.3,27.2,5.6,41.2c5.9,25.1,0.3,52.1,4.9,78.6C399.2,878.4,401.5,893,408.3,906.8z
			 M186.4,1006.3c6.1-1.7,5.5-6.9,6.4-11.2c8.4-40,16-80.2,25.4-120c13.6-57.9,18.8-117.6,38.6-174.1c1.3-3.7,4-9.5-3.5-11.2
			c-6.4-1.5-10,0.9-10.9,7.6c-1.4,9.8-0.1,19.6-2.2,29.5c-18.3,86.9-36.1,173.9-53.9,261C185,993.8,181.4,999.9,186.4,1006.3z
			 M592.2,448.7c-13.7-11-24.2-22-38.9-28.3C548.8,455.1,550.8,456.7,592.2,448.7z M95.3,1464.8c-6.4,7.1-5.3,13.3-7.5,18.3
			c-8.6,19.9,0.1,45.5-20.6,61.4c-0.5,0.4,1.1,4.1,2.3,5.8c1.7,2.3,4.4,2,6,0c2-2.7,4.1-5.8,4.8-9.1
			C85.4,1516.8,90,1492.3,95.3,1464.8z M407,1025.8c0.3,4.7-4.1,12.1,4.1,12.3c7.5,0.2,5.2-7.7,5.2-12.2c0.1-5.7,2.9-15.8-4.8-15.6
			C403.1,1010.5,409.1,1020.6,407,1025.8z M692.7,452.3c-18.5-11.8-21.6-12.6-32.9-8.5C671.5,451.6,673,452,692.7,452.3z
			 M276.8,361.8c4.9-20.8,1.3-26.2-16.1-27.6C268.6,341.3,271.3,350.1,276.8,361.8z M542.9,450.7c3.6-12.3,3.8-24.8,0-37.2
			C539.2,425.8,538.8,438.1,542.9,450.7z M460.2,494.4c-20.7-0.1-41.4-0.2-62.1-0.3C419,496.8,439.5,492.7,460.2,494.4z"/>
		<path class="st0" d="M413.4,4.7c13.8-1.1,26.5,1.9,40.1,10.6C435.2,23.1,425.2,10.8,413.4,4.7z"/>
		<path class="st0" d="M255.4,32.3c-12.1-0.3-24.3-0.2-33.8-11.8c13.5-2.1,24.4,1.5,34.4,8.9C256.3,29.6,255.7,31.2,255.4,32.3z"/>
		<path class="st0" d="M21.9,1870.1c-9.8,1.1-7.6,13.7-16.5,16.7c-3.7-7.1-8-17.1-3.4-22.1C7.8,1858.3,14.7,1869.2,21.9,1870.1
			C21.9,1870.2,21.9,1870.1,21.9,1870.1z"/>
	</g>
</g>
</svg>
