<?xml version="1.0" encoding="utf-8"?>
<!-- Generator: Adobe Illustrator 24.2.1, SVG Export Plug-In . SVG Version: 6.00 Build 0)  -->
<svg version="1.1" id="Calque_1" xmlns="http://www.w3.org/2000/svg" xmlns:xlink="http://www.w3.org/1999/xlink" x="0px" y="0px"
	 viewBox="0 0 1244.1 517.3" style="enable-background:new 0 0 1244.1 517.3;" xml:space="preserve">
<g>
	<g>
		<path d="M1230,367.3c-0.8,3.1-3.4,2.6-5.5,2.6c-9.2,0.2-18.4,0.4-27.6,0.3c-9,0-16.9,1.5-19.9,11.7c-6.3,2.5-8.4,11.5-17.2,10.4
			c-4.1-0.5-7.1-1-8.3-5.7c-0.9-3.9-4.3-0.9-6.5-1.4c-8.5-1.9-17.2,0.3-25.9,0c-4.3-0.2-9.3-1.8-13.8,0.2c-1.5,0.6-2-0.1-1.9-1.6
			c0-0.4-0.3-0.9-0.5-1.3c-3.3,4.5-4.6-0.1-7-1.1c-1.3-0.6-5.5-1.3-4.6,3.1c0.2,1,0.6,1.9-0.4,2.5c-1.2,0.7-2,0-2.9-0.8
			c-1.4-1.3-2.2-5.3-5-1.1c-0.4,0.6-1.1-0.6-1.5-1.2c-0.6-1-0.5-3-2.4-2.3c-1.7,0.7-0.5,2.3-0.5,3.5c0.1,3.2-2.5,5.3-3.8,8
			c-0.8,1.7-3.2,0.9-3.8-1.1c-0.6-1.9-0.8-4-1.1-6.1c-0.2-1.7-0.5-3.7-2.3-4.1c-1.5-0.3-3.4-2-4.6-0.4c-1.7,2.1,1.7,2.2,2.2,3.5
			c-1,2.1-3.3,0.8-4.4,2.4c-5.8,9-15.4,7.8-23.9,7.8c-7.9,0-15.6,0.1-23.5,0.6c-17.8,1-35.7,0.6-53.4-1.5
			c-6.8-0.8-11.7-3.8-12.2-11.2c-3.4-0.7-1.6,6.6-4.4,3.3c-3.1-3.5-2.2,1.3-4.2,1c-16.1-2-32.3,0.2-48.5-0.2
			c-16.5-0.4-33,0.5-49.5,0.4c-8.4-0.1-16.8,1.5-25.2,1.6c-3.6,0-6.3,1.2-5.4,6.3c0.4,2.2,2.3,7.3-1.7,7.5c-4.2,0.2-2.4-4.7-2.5-7.3
			c-0.3-6.7-0.8-7.5-7.4-7.2c-3.5,0.2-6.7-0.3-10-1.3c-2.4-0.7-4.6-2.7-7.2,1.2c-2.2,3.2-10.1-1.1-9.5-5.5
			c0.9-7.6-1.2-14.8-0.5-22.5c1.2-12.6-0.2-25.5-1.1-38.2c-0.5-7.5-5.3-11.6-12.7-12.1c-12.8-0.7-25.2-3.8-37.8-6
			c-5.3-0.9-7.7-4.9-10.4-8.7c-1.1-1.5-1.8-3.2-3.2-5.8c-0.8,5.5,2.1,9.4,1.9,13.6c-1.3,0-1.4-1.2-2.1-1.7c-1.5-1.2-3-4-5-2.7
			c-2.3,1.5-1.7,4.8-0.4,6.6c4.2,5.9,0.6,7-4.3,8.3c-37.8,10.3-76.1,19-114,29.3c-74.1,20.3-148.2,40-222.4,60.1
			c-55.3,14.9-110.6,29.8-165.8,44.9c-59.6,16.2-119.2,32.6-178.8,48.8c-45.8,12.5-91.7,24.8-137.5,37.3
			c-44,12.1-87.9,24.4-131.9,36.6c-11.6,3.2-23.2,6.4-35,8.7c-4.7,0.9-7.8,0-10-4.7c-3-6.6-7.6-8-15.5-6.2c-1.3,0.3-2.8,2.3-4,0.4
			c-1.2-1.8,0.9-2.5,1.8-3.5c2.1-2.3,3.7-5.3,7.8-4.3c1.8,0.4,2.4-1.4,2.6-3c0.6-5.9,3.2-9.1,9.6-8c1,0.2,2.2-0.2,3.3-0.6
			c34.3-11.1,69.4-19.4,104.1-29.1c66.4-18.5,132.8-36.7,199.3-54.9c98-26.9,195.9-53.7,293.9-80.5c84.9-23.2,169.8-46.5,254.8-69.7
			c26.1-7.1,52.4-13.6,78.2-21.4c13.5-4.1,27-7.7,40.5-11.6c1.3-0.4,2.9-0.7,2.9-2.2c-0.1-2.1-2.2-1.7-3.5-1.8
			c-3.7-0.2-7.5,0-11.3-0.1c-35.8-1.1-71.7-1.1-107.5-1c-136.3,0.4-272.7,0.5-409,0.9c-105.4,0.3-210.7,0.7-316.1,1.1
			c-61.2,0.2-122.4,0.6-183.7,1c-37.7,0.2,15.3,0.5-22.5,0.7c-5.6,0-11.2-0.9-16.9-0.7c-5.1,0.2-4.7-4.5-4.6-7.5
			c0.1-3.2-0.5-5.9-2.1-8.9c-0.4,1.3-0.7,2.5-1.1,3.5c-0.5,1.1-0.3,3-2.1,2.8c-1.4-0.1-1.3-1.6-1.6-2.6c-2.3-6.8-8.7-8.1-13.7-3
			c-1.6,1.6-2.8,4.8-5.8,2.7c-2.9-2-7.6-3-7.1-7.8c0.8-7.5,2.6-14.7,7.2-21.9c1.2,6.6,1.5,12-2.7,16.6c1.4,1.8,2.5,0.8,3.2,0.2
			c4.2-3.2,7.9-5.1,13.4-1.6c4.1,2.6,8.5-0.3,9-5c0.4-4.1,1.7-4.4,5.9-4.7c36.2-2.4-18.3-0.3,17.9-0.7
			c119.2-1.3,238.5-0.4,357.8-0.6c137.9-0.2,275.7,0.1,413.6,0.2c79.3,0.1,158.5,0.7,237.8,0.2c20.2-0.1,40.5-0.5,60.7-0.7
			c1.5,0,3.9,0.6,4.1-1.7c0.2-2.1-2.2-2.2-3.7-2.6c-15.5-4.3-31.1-8.5-46.6-13c-111.4-32.6-223.8-61.3-335.7-92
			c-61.2-16.8-122.5-33.3-183.8-49.7C36.4,56.5-57.8,31.4-151.9,6.4c-40.5-10.8-81-21.3-121.5-32c-6-1.6-11.7-3.9-17.8-5.3
			c-4-0.9-7.6-3.3-8.1-8.3c-0.4-3.9-4.5-5.9-5.2-9.7c-0.2-0.8-1.2-1.3-2.3-1.3c-7.4,0-7.5-0.1-6.2-7.8c0.2-0.9,0.2-1.8,0.5-3.9
			c1.7,4,4.5,3,7,3.6c6.9,1.9,12.2-4.2,17.7-3.2c6.7,1.2,13.6,2.5,20.3,4.3c21.2,5.7,42.5,11.3,63.7,17
			c44.2,11.9,88.4,23.9,132.7,35.7c63.7,17,127.4,33.7,191.1,50.7c68.2,18.2,136.4,36.6,204.5,54.8c62.7,16.8,125.5,33.4,188.3,50.2
			c45,12,89.8,24.6,135,36c18,4.5,35.9,9.5,54,13.7c6.1,1.4,11.5,4.5,16.7,7.8c1.1,0.7,2,1.6,3.5,1.3c12.3-2.8,25.1-1.4,37.4-3.9
			c1.5-0.3,3.4-0.2,3.7-1.9c0.9-6.1,5.3-11.2,4.8-17.7c-0.6-7.5-0.5-15-0.6-22.5c0-2.7-0.5-4.4-3.5-5.4c-3.4-1.2-4-6.3-0.9-7.4
			c4.2-1.6,4.1-4.5,3.8-7.6c-0.4-5.2,2.1-7.3,7-8.2c7.4-1.3,14.5-0.3,21.6,1.2c1.5,0.3,3,0.8,4.4,0.7c31.3-3,62.7-0.7,94-2
			c16.7-0.7,33.4-0.7,50.1-1c2.4-0.1,4.8-0.9,7.2-0.8c5.8,0.1,7.3-2.6,7-8.1c-0.2-3.2-0.9-4.4-3.9-4.7c-4.1-0.4-5.9-3-5.7-6.9
			c0.1-3,0.5-6,0.6-9c0.2-3.7,2.5-4.4,5.7-5.5c17.1-5.7,35.1-1.4,52.3-5.5c1.9-0.5,4.2-0.4,6.1,0.1c11.6,3.1,23.4,1.8,35.1,1.8
			c5.9,0,11.1,3.4,17.1,2.8c1.2-0.1,1.8,1.3,1.8,2.5c0.2,4.9,3.3,4.7,7,4.8c14.4,0.2,28.9-1,43.2,2.1c3.8,0.8,5.1,2.6,4.8,6.1
			c-0.3,4.7-0.2,9.4-0.7,14c-0.3,3,0.5,4.9,3.5,5.2c4.2,0.4,9.2,3.6,11.8-3c0.2-0.5,1.3-0.9,2-0.9c8.7-0.5,17-4.3,25.9-3.3
			c2.6,0.3,4.2,0.7,4.5,3.7c0.4,4.1,2.8,4.8,6.4,3.3c2.4-1.1,5.5-2.4,7,0.5c1.3,2.6,2.4,6.2-0.8,8.8c-3.5,2.9-1.5,4.9,1.2,6.5
			c3.4,2.1,7.2,2.9,11.3,2.9c10.1-0.1,20.3,0.3,30.4,0.1c6.4-0.1,9.7,2.7,11.2,8.6c1.7,6.5,1.2,13.1,1.2,19.6
			c-0.3,50.7-0.8,101.4-1.2,152.1c-0.1,10.1-0.4,20.2-1.8,30.3c-0.4,2.8-0.6,5.3-4.2,5.5c2.3-3.6,1.7-7.6,1.7-11.5
			c0.3-45.4,0.5-90.9,0.7-136.3c0.1-19.3-0.2-38.7-0.1-58c0-5.3-2-7.5-7.3-7.4c-7.9,0.2-15.8,0-23.6-0.2c-5.1-0.2-9.6,3.9-10.2,6.5
			c-0.9,4.2-3.2,10.4,3,13.9c0.6,0.3,1,2.2,0.8,2.4c-4.4,3.5-1.5,6.5-0.2,10.2c1.1,3.3,0.2,7.4,0.2,11.1c-0.2,37-0.5,74-0.7,110.9
			c0,1.9,0,3.5-2.4,4.5c-3.3,1.4-3.1,4.8-0.8,6.1c3.4,1.9,2,4.1,0.8,5.3c-2.8,2.7-1.1,5.3-0.4,8.2c0.3-1.2,0.6-2.5,1.3-5
			c0.6,5.8,1.2,10,1.4,14.2c0.1,2.2,1,5-2.9,5.6c-1.9,0.3-2,3.2-0.9,3.5c5.4,1.7,3.1,6.1,3.3,9.2c0.3,5.4,2.6,7.4,7.7,7.2
			C1210.9,367.6,1220.5,367.5,1230,367.3z M1133.5,213.6c-3.2,0.2-4.7-1.5-6.5-2.2c-6.6-2.6-13.2-5.6-20.5-5.4
			c-2.3,0.1-6.4-0.9-6.6,2.1c-0.1,2.5,3.9,2.9,6.4,3.2c28.3,3.2,43.7,26.6,47.6,50.7c3.4,21.4-6.1,38.5-24.6,49.9
			c-20.8,12.8-42.1,8.3-61.3-2.3c-16.9-9.4-24.3-26.8-27.2-45.8c-0.2-1.2,0.4-2.7-1.6-3.5c-2.5,5.9-3.4,11.7-1.3,17.9
			c2,5.9,3.7,11.9,5.5,17.8c-5.9-6.4-7.9-14.3-9.6-22.3c-2.1-9.3-0.4-18.7-0.7-28c-0.1-3.5-1.6-5.8-4.9-6.6
			c-4.9-1.2-12.2,5.6-11.7,10.6c0.1,1.6,0.9,3.2,0,4.9c-1.2-0.9-2-2.8-3.6-2.5c-5.6,0.8-6.2-3.2-6.6-6.9c-0.4-4-3.3-7.2-3.5-11.2
			c0-0.2,0.1-0.4,0.2-0.5c5.9-2.6,3.5-7.2,2.1-11.7c3.8,1.5,5.3,4.6,7.9,6.4c2,1.4,11.9-2.3,11.4-4.4c-0.6-2.5,1-4.2,1.3-6.5
			c-2.1-0.6-4.9,1.2-5.8-2c-0.7-2.6,0.4-4.7,1.9-6.8c1.2-1.7,2.9-2.3,4.8-2.4c2.8-0.1,5.3-1.2,7.9-3.1c-3.1-2.7-7.3-0.3-10.8-3.1
			c5.4-1.2,10.1-2.2,14.8-3.2c0-0.6-0.1-1.1-0.1-1.7c-9.3,0-18.7,0-28,0c-5.4,0-10.2-1.2-14.4-5c-9.9-9-21.5-14.9-34.4-18.3
			c-1.9-0.5-3.7-2.6-6.5-0.2c4,1.1,6.9,3.8,10.8,4.2c2.8,0.3,4,1.5,3.3,4.5c-0.8,3.6,0.6,6.3,3.9,7.8c1.6,0.7,3.8,0.7,2.8,3
			c-1.1,2.6-3.1,0.9-4.7,0.2c-4.5-1.8-9-3.6-13.6-5.4c-2.6-1-4.3-0.6-4.7,2.6c-0.3,2.6-0.9,5.3-3.9,7.1c1.8,0.2,2.9,0.2,4,0.5
			c24.4,6,47.6,31.9,51.3,56.8c0.6,4-0.8,5.5-4.8,5.4c5.7,1,6.2,1.5,6,7.3c-1,21.8-9.1,39.9-25.6,54.7
			c-29.7,26.6-83.2,22.6-107-16.8c-2.2-3.6-3.7-7.6-6.9-10.8c-1.4,2.1-0.1,3.3,0.5,4.6c4.4,9.3,10.4,17.3,17.8,24.4
			c4.1,3.9,2.9,7.2-2.6,8.7c-3.2,0.9-5.6-0.5-7.6-2.4c-4.3-4-8.9-7.8-10.4-14.2c-1.1-4.9-2.6-10-5.4-14.1c-3.2-4.7-0.4-6.9,2.6-8.3
			c4.6-2.1,4.3-4.6,2-8.8c-1.5,3.9-4.3,5.8-6.5,8.3c-0.9,1.1-1.6,2.8-3.5,2.1c-1.6-0.6-1.9-2.2-2.1-3.7c-0.2-0.9-0.3-1.9-0.5-2.8
			c-0.3-1.3-0.6-2.8-2.4-2.3c-1.8,0.5-1.2,2-1.1,3.3c0.3,2.3,1.8,4.5,0.4,8.3c-2.2-6.4-4.9-11.7-5.8-17.3
			c-2.6-16.2-0.8-32.4,4.9-47.5c9.9-26.3,29.2-43.5,55.9-52.5c4.4-1.5,9.2-2.3,13.4-5.4c-2.8-1.2-5-0.4-7.1,0.2
			c-37.6,10.5-61.2,35.1-69.9,72.7c-6.6,28.7-2.3,56,17.7,79.3c12.4,14.4,26.2,27,44.6,33.1c35.1,11.6,68.1,8.5,97.6-15.5
			c2.7-2.2,5.6-3.6,9.2-3.6c9.7,0,19.5,0.1,29.2-0.1c24.4-0.6,48.7-0.9,73.1-0.7c11.8,0.1,23.6-0.1,35.4-0.2
			c7.1-0.1,12.3-2.8,15.4-9.9c9.3-21.1,11.8-43.3,11.8-66c0-18.7-2.7-37.1-10.4-54.3c-3.4-7.5-9.5-12.2-17.3-12.7
			c-12-0.8-24.2-0.2-36.2-0.2c-0.2,0.6-0.3,1.1-0.5,1.7C1120.8,195.8,1125.6,206.1,1133.5,213.6z M191.6,265.8c0.7,2.2,2,1.9,3,2.3
			c5.1,2.1,9.8-1.7,14.9-0.9c12.4,2,25,0.8,37.5,2.3c12.3,1.5,24.9,0.4,37.4,0.5c48.8,0.3,97.6,0.7,146.4,0.9
			c30.5,0.1,61.1-0.1,91.6,0c42.5,0.1,85-0.5,127.5,0.9c15.7,0.5,31.5,0.2,47.3,0.3c2.9,0,7.1-2.4,7.8,3.4c0.1,1.3,1.4,0.3,2.2,0.1
			c7.3-1.8,13.3-7.3,21.3-7.1c1.4,0,2.7-1.6,2.7-3.2c0.1-2.1-1.6-2.9-3.3-3.2c-3.9-0.7-7.8-1.5-11.7-1.6c-4.3-0.1-9.3-2.5-12.4,3
			c-0.4,0.8-2.4,0.9-3.6,0.9c-10.3,0-20.7,0.5-30.9-0.3c-9.9-0.8-19.6,3.2-29.4,0.1c-0.2-0.1-0.4,0-0.6,0c-23.5-0.1-46.9,0-70.4-0.3
			c-23.1-0.2-46.1,1-69.2-0.8c-9.9-0.8-19.7,1.6-29.9-0.5c-6-1.2-13.5,1.4-20.5,1.4c-27.8,0-55.5,0.5-83.3,0.7
			c-50.3,0.2-100.6,0.1-150.9,0.6C207.4,265.4,199.6,265.2,191.6,265.8z M898.6,313.2c2.4,2.9,5.7,4.3,8.7,6
			c1.5,0.8,3.6,1.5,2.1,3.6c-1.5,2-0.6,3.1,0.9,4.1c1.8,1.2,3.3,0.5,4.4-1c1.5-1.9,2.9-2.1,5.3-1.6c19.1,4.2,36.9,1.3,52.5-11.1
			c2.9-2.3,4.8-5.6,8.2-0.6c1.7,2.5,2.5-1.1,3.9-1.3c1-0.1,1.9-0.8,1-1.9c-1.2-1.5-2.2-0.3-3.3,0.4c-1,0.6-2.9-0.4-2.3-0.8
			c2.8-1.7,0.6-4.5,1.9-6.2c7.2-10.3,9.3-22,10.6-34.2c2.3-22-7.9-37.8-23.6-51.2c-1.2-1-3.2-2.7-4.4-1.2c-1.8,2.1,1.4,2.4,2.3,3.6
			c0.8,1,1.9,1.8,2.9,2.6c1.4,1.2,3.1,2.4,1.5,4.6c-1.9,2.7-3.1,0.4-4.5-0.5c-13.7-8.4-27.9-12.8-44.4-9.2
			c-36.7,8-52,51.8-31.6,81.4c1.4,2,0.7,5.2,3.1,6.1c4.7,1.8,7.1,6.1,11.5,8.6C902.8,313.9,901,311.7,898.6,313.2z M1093.5,222.4
			c-1.5-1.1-0.1-4.2-3.6-3.1c-9.2,2.9-17.6,7.2-24,14.6c-1.4,1.6-4.1,3.7-1.8,6.3c2,2.3,4.8,3.5,8,1.6c5.6-3.3,11.5-5.9,18.2-6.9
			c2.2-0.3,5.6-2.8,4.1-4.8C1092.3,227.3,1090.7,225.4,1093.5,222.4z M716.8,285.4c0.2,4.9,1,9.7,4.2,12.2c3,2.3,5.9-1.9,8.9-3.2
			c0.5-0.2,1.1-0.3,1.6-0.6c4.3-2.7,9.5-3.3,13.4-6.7c2.8-2.3,2.3-3.7-0.8-4.5c-3.2-0.9-6.4-1.9-9.5-3.1c-4-1.6-8.4-2-12.6-0.5
			C718.9,280.1,716.1,281.8,716.8,285.4z M1046.1,119.3c-11.2-0.3-11.6,0.1-11.2,9.7c0.1,3.4,1.2,4.2,4.7,4.1c3.6,0,6-3.9,9.3-2.6
			c5.1,2,5.3-0.8,5.5-4.4C1054.6,119.9,1054.1,119.5,1046.1,119.3z M858.8,260.4c-1.2-1.8-1.4-4.6-4.7-3.8c-2.5,0.6-3.8,2.2-4.2,4.7
			c-0.3,2-0.6,4.1-0.8,6.1c-0.4,4,1,6.2,5.4,5.2c3.3-0.8,4.9,0.3,5.4,3.6c0.2,1,0.1,2.8,2.9,2.8c-2.8-8.2-1.7-16.3-0.2-25.3
			C859.6,255.9,860,258.5,858.8,260.4z M155.9,266.8c-31.1-2.1-62.2-1.3-93.4-0.6c22.1,1.5,44.3,0,66.5,1.9
			C137.9,268.9,147,267.4,155.9,266.8z M965.1,122.8c1.3,1.6,6.5,1.6,1.7,4.8c-1.8,1.2-1.7,2.9,0.6,3.7c2.1,0.8,4.2,1.7,6.3,2.2
			c2.8,0.7,5.4-0.5,5.4-3.3c0-4.6,0.6-8.1,6.5-8.5C978.5,121.3,971.8,118.8,965.1,122.8z M1113.7,300.9c4.9,0,9.8-0.4,13.7-3.9
			c1-0.9,2.1-1.8,1.3-3.3c-0.6-1.2-1.9-0.9-3-0.7c-5.3,1.3-10.5,2.5-15.8,3.7c-1.3,0.3-2.9,0.2-2.6,2.1c0.2,1.6,1.6,1.9,3,2
			C1111.4,301,1112.6,300.9,1113.7,300.9z M1010.9,124c0.1,6.9,2,10.7,5.2,10.1c5-1,2.8-5.3,3.2-8.3c0.3-3.1,0-6.4-4.4-6.1
			C1012.6,119.9,1010.4,120.8,1010.9,124z M707.3,237.3c-1.7,0-3.1,0-3.7,1.4c-0.5,1.3,0.7,2,1.5,2.7c1.9,1.8,2.2,4.3,3.2,6.4
			c1.5,3.2,3.9,3.5,5.9,0.4c1.4-2.2,2.8-4.9,1.2-7.4C713.7,237.9,710.1,238,707.3,237.3z M1107.2,255c1.6,0,3-0.2,3.9-1.7
			c0.7-1.2,0.2-2.3-0.9-2.8c-4.7-2-1.5-2.8,0.6-3.6c1.2-0.5,2-1.1,1.6-2.5c-0.5-1.5-1.5-1.4-2.6-0.6c-2,1.7-3.9,0.4-5.8-0.2
			c-1.3-0.4-2.7-0.6-3.5,0.8C1098.2,248.3,1102.4,254.8,1107.2,255z M11.4,270.4c7,0,13.2,0.1,19.4,0c2.8,0,7.9,1.3,7.8-1.3
			c-0.2-4.1-5.2-2.1-7.9-2.1C24.4,267,17.7,265.4,11.4,270.4z M1090.5,277.5c-0.7-1,0.2-1.8,0.4-2.6c0.3-1.6,1.4-3.6-1.3-3.9
			c-2.9-0.4-1.9,1.9-2,3.4c-0.1,1.5-0.4,2.9-0.7,4.4c-0.7,3.2,0.7,4.9,3.8,4.5c2.4-0.3,6.4,0.8,6.7-2.3c0.4-3.6-3.5-2.8-6-3.1
			C1091.1,277.8,1090.8,277.6,1090.5,277.5z M1041.8,230.4c-0.2-2.1-0.8-4.2-2.8-3.7c-4.2,1.1-1.9,6.6-5.2,8.9
			c-0.8,0.6,1.5,3.3,3.2,2.8C1040.9,237.2,1040.1,232.9,1041.8,230.4z M1056.4,388.5c2.3-2.1,3.1-5,1.6-7.1
			c-1.5-2.2-4.1-0.4-6.1,0.5c-0.6,0.3-1.1,1.5-1.8,0.9c-1.1-0.9-2-2.2-2.5,0.3c-0.3,2,0.8,3.7,2.2,4.9c1.2,1.1,1.9-0.3,2.5-1.2
			c0.8-1.1,1-3,3-2.8C1056.9,385.3,1054.1,386.9,1056.4,388.5z M-69.2,270.5c-6.8-1.7-12.8-6.9-22.1-4.6
			C-83.5,269.9-76.1,269.2-69.2,270.5z M1143.6,379.1c4.4-1.4,8.1-3.7,10.6-7.7c0.3-0.5,0.3-1.5,0-2c-0.5-0.8-1.4-0.4-1.9,0.1
			c-2.7,2.9-6.1,4.9-9.5,6.9c-0.5,0.3-1,1.2-1,1.8C1141.9,379,1142.8,379.1,1143.6,379.1z M1093.2,290.6c1.9-0.1,4.8,1.9,4.9-1.6
			c0.1-3.2-3.1-2.6-5.1-2.6c-2,0-5.5-1.3-5.6,1.5C1087.3,291.7,1091,290.4,1093.2,290.6z M1065,124c0.2-1.9,0.8-4-1.7-4.2
			c-2.1-0.2-4,1-3.6,3.1c0.4,2.2,1,5.8,3.3,5.9C1066,129,1063.8,125.3,1065,124z M-362.1,275.7c0-0.3,0-0.6,0-0.9
			c-3.2-0.7-6.4-1.5-9.6-2.2c-1.2-0.3-2.8-0.9-3.2,1c-0.4,2,1.3,2.6,2.8,2.6C-368.8,276.2-365.4,275.9-362.1,275.7z M-179,270.6
			c4.9,0,9.7-0.3,15-2.8C-170.2,266.1-174.6,268.5-179,270.6z M1095.6,265.3c-0.5-1.2-0.6-2.8-2.6-1.9c-1.8,0.8-4.3,0.5-4.4,3.4
			c0,1.6,1.4,1.9,2.4,1.3C1092.5,267.2,1095.4,268.5,1095.6,265.3z M1087.6,298.5c1.4,1,1.5,3.8,4.2,4.1c0.8,0.1,1.5-1,1-1.5
			c-1.5-1.7-0.6-5.2-4-5.2C1087.6,295.8,1087.5,297,1087.6,298.5z M1066.1,195.8c0.1-0.1,0.1-0.2,0.2-0.3c-5.8,0-11.5,0-17.3,0
			c0,0.1,0,0.2,0,0.3C1054.7,195.8,1060.4,195.8,1066.1,195.8z M1076.7,384.1c-0.3-1.6-1.2-2.8-2.9-2.7c-1.4,0.1-1.5,1.4-1.3,2.6
			c0.2,1.3,0.7,2.7,2.2,2.8C1076.3,386.9,1076.4,385.3,1076.7,384.1z"/>
		<path d="M-419.9,226.2c0-2.5,0.6-4.5,2.5-5.7c1.4-0.9,2.8-0.9,4.2,0c1.4,0.9,1.3,2.1,0.8,3.5c-0.4,1-0.7,2.2-1.3,3.1
			c-1.4,2.3-0.5,7.4-4,6.8C-420.3,233.4-418.7,228.5-419.9,226.2z"/>
		<path d="M998.7,333c-18.5,17.4-39.9,27.5-65.8,25.9C956.6,354.8,979.9,349.7,998.7,333z"/>
		<path d="M1069.3,332.5c-19.5,1.9-39,1.4-58.5-0.2C1030.3,331.5,1049.8,328.9,1069.3,332.5z"/>
		<path d="M1153.2,202.7c11.5,13.6,13.3,30.1,13.5,47.1C1163.2,233.8,1161.4,217.3,1153.2,202.7z"/>
		<path d="M983,196.8c4.7,2.1,8.8,4.8,11.5,9.4c2.1,3.5,5.2,6.4,9.1,8.1c1.3,0.6,3.2,1.3,1.8,3.2c-1.2,1.7-2.8,1.8-4.3,0.2
			c-1.8-1.9-3.8-3-6.5-1.6c-1.3,0.6-2.5-0.2-2.1-1.5c2-6.4-2.5-9.6-6.3-13.2C985,200,984.1,198.3,983,196.8z"/>
		<path d="M911,340.3c-0.2,2.5-1,4.7-3.2,4.1c-3.2-0.9-7.3-1.3-8.2-5.5c-0.4-1.9,1.2-4,3.3-3.5C906.2,336.1,910.3,336,911,340.3z"/>
		<path d="M1158.6,314.5c-0.7,11.3-7.5,18.8-16.2,18.1C1151.2,329.5,1156.4,323.4,1158.6,314.5z"/>
		<path d="M851.3,295.8c4.5,6.2,7.1,13.5,11.1,20c-0.5,0.3-1,0.6-1.4,0.8c-3.9-6.5-7.7-13-11.6-19.5
			C850.1,296.7,850.7,296.3,851.3,295.8z"/>
		<path d="M981.5,186.4c6.2,1.4,11.9,3.8,15.2,9.7C991.4,193.3,986.8,189.4,981.5,186.4z"/>
		<path d="M1024.4,319.2c-1.8-0.8-3.3-2.1-3.4-3.9c-0.2-2.1,1.7-2.7,3.5-2.7c1.7,0,3.6,0.5,3.5,2.6
			C1027.9,317.2,1026.4,318.5,1024.4,319.2z"/>
		<path d="M1163.4,299c-0.6-4,0.3-8.2,2.8-14.2C1166.1,290.4,1164.8,294.7,1163.4,299z"/>
		<path d="M934.2,316.6c-25.1,0.3-47.5-19.6-49.3-44.8c-0.6-9,0.5-18.3,5.7-26.3c1.3-1.9,2.3-4.2,5-1.5c1.1,1.1,3,1.2,4.2,0.2
			c5.5-5.1,12.6-6,19.3-7.9c3-0.8,3.6-2.1,2.1-4.8c-0.8-1.4-5.1-1.3-2.8-3.5c2.7-2.6,2.4-7.3,7.5-8.2c22.3-3.9,44.9,8.4,53.3,29.6
			C992.2,282,969.4,316.2,934.2,316.6z M960.2,288.7c-4.9,3.1-9.4,4.7-14.2,5.4c-1,0.1-1.9,0.5-2,1.6c-0.1,1.1,0.6,1.6,1.5,2.1
			C950.8,300.3,958.8,296,960.2,288.7z M920.5,277.8c-2.5,0.7-4.5-0.4-6.7-0.9c-1-0.2-1.9,0-2.2,1.1c-0.2,1,0.5,2.1,1.4,2
			c3.6-0.7,6.9,0.8,10.4,1c0.9,0,1.9-0.6,1.7-1.7c-0.1-0.5-0.9-1.2-1.5-1.3C922.5,277.6,921.4,277.8,920.5,277.8z M919.6,288.7
			c1.5,0.1,2.8-0.3,2.8-2c0-2.3-1.8-2.7-3.5-2.7c-1.3,0-3.2-0.1-3.2,1.5C915.6,287.7,917.5,288.5,919.6,288.7z"/>
		<path d="M1199.1,258.5c-1.5-2.5-0.9-5.4-0.9-8c0.1-28.3,0.3-56.7,0.4-85c0-3.9-0.8-8.4,5.6-7.8c3,0.3,5.3,4.7,4.5,9
			c-1.9,9.7-0.4,19.4-0.8,29.1c-0.1,1.3,0,3,1.7,3c2.2,0.1,2-1.9,2-3.3c0.1-4.7,0-9.4,0-14.1c0-2.8-0.3-5.4,2.4-7.6
			c2-1.6,1.3-4.6-0.5-6c-3.3-2.6-2.3-6-1.5-8.7c0.9-2.8,4.3-1.4,6.5-1.5c10.2-0.3,10-0.2,10,9.9c-0.2,32.8-0.2,65.7-0.3,98.5
			c0,7.1-0.1,7.2-6.1,4.3c-4-2-8.1-3.1-12.5-3.7c-2.3-0.3-6,0.8-5.8-5.9c0.2-7.9-0.3-16.3-0.5-24.4c-0.3-8.6-0.1-17.3-0.1-25.9
			c0-1.4,0.4-2.9-2.1-5.3c0,18.6,0,35.9,0,53.2C1200.3,258.4,1199.7,258.4,1199.1,258.5z M1219.9,250.5c-0.1-4.1-3.8-7.6-7.9-7.5
			c-3.5,0.1-5.6,2-5.7,5.6c-0.1,4,4,7.5,8.3,7.5C1218.6,256.1,1219.8,253.7,1219.9,250.5z M1220.2,237.2c0-5.8-7.8-10.4-11.8-8.2
			c-1.5,0.9-2,2.3-1.4,3.9c0.6,1.6,1.5,0.6,2.6,0.3c4.9-1.2,6.4,0.3,5.2,5c-0.4,1.5,0.2,2.1,1.3,2.6c1.4,0.6,2.8,0.3,3.4-1
			C1220.2,238.7,1220.2,237.3,1220.2,237.2z M1208.5,214.9c2-1.7-1.2-5.7,3.1-5.5c2.4,0.1,4.4,0.9,5.1,3.5c0.1,0.5,0,1.1,0.1,1.7
			c0.1,0.8,0.5,1.6,1.3,1.5c0.6-0.1,1.5-0.6,1.6-1.2c1-4.1-1.5-6.8-4.4-9c-2.2-1.7-5.2-2.3-7.2,0
			C1205.7,208.6,1205.7,211.8,1208.5,214.9z M1210.8,219.1c-1.4,0.1-3,0-3.7,1.7c-0.5,1.1-0.6,2.2,0.3,3.2c1.5,1.7,2.1-0.8,3.2-0.7
			c1.5,0.1,2.9,0.2,4.4,0.5c2.5,0.5,5,1.2,7.5,1.8c1,0.3,1.9,0.3,2.3-0.8c0.4-0.8-0.2-1.7-0.8-1.7
			C1219.2,222.8,1215.7,218.8,1210.8,219.1z"/>
		<path d="M1210.7,285.7c-1.6-2.4-1-3.6,1.9-3c2,0.4,4,1.1,5.9,1.7c2.5,0.8,5.2,2.3,5.5-2.3c0.1-1.3,1.5-1.8,2.6-1.6
			c2,0.5,1.4,2.4,1.4,3.8c0,14.3,0,28.5-0.1,42.8c0,10.7-0.2,21.4-0.1,32.1c0,3.8-1.2,5.7-5.2,5.3c-1.5-0.1-3,0-4.5,0
			c-8,0-8.2-0.4-4.6-7.3c1-1.9,0.7-3.6-0.5-5.3c-0.8-1-1.9-1.3-3-0.9c-2,0.7-3.1,2-3.1,4.2c0,1.5,0.2,3,0.3,4.5c0.2,3-0.3,5.1-4.1,5
			c-3.6-0.1-5-1.4-4.9-5c0.1-17.3,0.1-34.5,0.2-51.8c0-12.2-0.1-24.4,0-36.6c0-1.6-1.1-4.5,2.6-3.7c0.1,0,0.2,0.3,0.2,0.5
			c0,0.2-0.2,0.3-0.2,0.5c-2.1,9.4-0.8,19-1,28.5c0,2.3,1.8,4,3.4,5.6c2.6,2.5,6.3,4.6,2.7,9.1c-0.9,1.2,0.1,3.1,1.5,3.8
			c1.7,0.9,1.4-1,1.9-1.8c1.7-3.1,3.4-1.6,5.4-0.1c2.3,1.7,3.6,5.1,7.7,5.2c-1-2.8-3-4.1-4.5-5.6c-1.9-1.9-3.6-3.6-0.1-5.6
			c1.3-0.8,2.6-2.1,1.4-3.7c-1.2-1.6-2.7-0.6-4,0.2c-1.9,1.2-3.9,2.7-6.1,0.7c-3.8-3.4-7.3-6.8-6.6-12.8c0.6-5.6,0.3-11.2,0.4-16.9
			c0.1-2.5-0.2-4.9-2.3-6.6c7.1,0.1,13,5.1,20.1,5.2c1.2,0,3.4,0.7,2,2.9c-1,1.6-0.5,5-4.2,3.9c-2.3-0.7-4.7-1.4-7.1-1.9
			c-2.5-0.5-4.8,0.2-5.1,3c-0.4,2.8,0.9,4.8,4.2,4.2c-6.9,5-7,7.5-0.3,11.7c0.5,0.3,0.9,0.7,1.3,1.1c2.1,1.7,4.4,3.4,6.9,1
			c2.5-2.5,0.8-5.2-0.4-7.7C1216.7,288.5,1212.5,288.7,1210.7,285.7z M1207.2,334.9c0,0,0.1,0,0.1,0c0,3.7,0,7.5,0,11.2
			c0,1.2,0.5,2.3,1.9,2.3c1.4,0,1.8-1.1,1.8-2.3c0.1-7.1,0.2-14.2,0.2-21.3c0-1.4-0.4-2.8-2-2.8c-1.7,0-2,1.4-2,2.8
			C1207.2,328.2,1207.2,331.5,1207.2,334.9z"/>
		<path d="M1217.1,250.5c-0.2,1.5-1.2,1.9-2.4,1.6c-2-0.6-4.8-0.6-5.5-3.1c-0.5-1.8,1.4-1.9,2.6-1.7
			C1214.1,247.5,1216.4,247.8,1217.1,250.5z"/>
	</g>
</g>
</svg>
