<?xml version="1.0" encoding="utf-8"?>
<!-- Generator: Adobe Illustrator 24.2.1, SVG Export Plug-In . SVG Version: 6.00 Build 0)  -->
<svg version="1.1" id="Calque_1" xmlns="http://www.w3.org/2000/svg" xmlns:xlink="http://www.w3.org/1999/xlink" x="0px" y="0px"
	 viewBox="0 0 18.5 21.1" style="enable-background:new 0 0 18.5 21.1;" xml:space="preserve">
<path d="M12.9,12.5c-1.2,0-1.8,0.7-3.7,0.7s-2.5-0.7-3.7-0.7C2.5,12.5,0,15,0,18.1v1.1c0,1.1,0.9,2,2,2h14.5c1.1,0,2-0.9,2-2v-1.1
	C18.5,15,16,12.5,12.9,12.5z M9.2,11.9c3.3,0,5.9-2.7,5.9-5.9S12.5,0,9.2,0S3.3,2.7,3.3,5.9S6,11.9,9.2,11.9z"/>
</svg>
