<?xml version="1.0" encoding="utf-8"?>
<!-- Generator: Adobe Illustrator 24.2.1, SVG Export Plug-In . SVG Version: 6.00 Build 0)  -->
<svg version="1.1" id="Calque_1" xmlns="http://www.w3.org/2000/svg" xmlns:xlink="http://www.w3.org/1999/xlink" x="0px" y="0px"
	 viewBox="0 0 38.5 44" style="enable-background:new 0 0 38.5 44;" xml:space="preserve">
<path d="M0,39.9C0,42.2,1.8,44,4.1,44h30.2c2.3,0,4.1-1.8,4.1-4.1V16.5H0V39.9z M27.5,23c0-0.6,0.5-1,1-1H32c0.6,0,1,0.5,1,1v3.4
	c0,0.6-0.5,1-1,1h-3.4c-0.6,0-1-0.5-1-1V23z M27.5,34c0-0.6,0.5-1,1-1H32c0.6,0,1,0.5,1,1v3.4c0,0.6-0.5,1-1,1h-3.4
	c-0.6,0-1-0.5-1-1V34z M16.5,23c0-0.6,0.5-1,1-1H21c0.6,0,1,0.5,1,1v3.4c0,0.6-0.5,1-1,1h-3.4c-0.6,0-1-0.5-1-1V23z M16.5,34
	c0-0.6,0.5-1,1-1H21c0.6,0,1,0.5,1,1v3.4c0,0.6-0.5,1-1,1h-3.4c-0.6,0-1-0.5-1-1V34z M5.5,23c0-0.6,0.5-1,1-1H10c0.6,0,1,0.5,1,1
	v3.4c0,0.6-0.5,1-1,1H6.5c-0.6,0-1-0.5-1-1V23z M5.5,34c0-0.6,0.5-1,1-1H10c0.6,0,1,0.5,1,1v3.4c0,0.6-0.5,1-1,1H6.5
	c-0.6,0-1-0.5-1-1V34z M34.4,5.5h-4.1V1.4c0-0.8-0.6-1.4-1.4-1.4h-2.8c-0.8,0-1.4,0.6-1.4,1.4v4.1h-11V1.4c0-0.8-0.6-1.4-1.4-1.4
	H9.6C8.9,0,8.2,0.6,8.2,1.4v4.1H4.1C1.8,5.5,0,7.3,0,9.6v4.1h38.5V9.6C38.5,7.3,36.7,5.5,34.4,5.5z"/>
</svg>
