<?xml version="1.0" encoding="utf-8"?>
<!-- Generator: Adobe Illustrator 24.2.1, SVG Export Plug-In . SVG Version: 6.00 Build 0)  -->
<svg version="1.1" id="Calque_1" xmlns="http://www.w3.org/2000/svg" xmlns:xlink="http://www.w3.org/1999/xlink" x="0px" y="0px"
	 viewBox="0 0 21.8 21.8" style="enable-background:new 0 0 21.8 21.8;" xml:space="preserve">
<path d="M0,10.7V2c0-1.1,0.9-2,2-2h8.7c0.5,0,1.1,0.2,1.4,0.6l9,9c0.8,0.8,0.8,2.1,0,2.9l-8.7,8.7c-0.8,0.8-2.1,0.8-2.9,0l-9-9
	C0.2,11.8,0,11.3,0,10.7z M4.8,2.7c-1.1,0-2,0.9-2,2s0.9,2,2,2s2-0.9,2-2S5.9,2.7,4.8,2.7z"/>
</svg>
