<?xml version="1.0" encoding="utf-8"?>
<!-- Generator: Adobe Illustrator 24.2.1, SVG Export Plug-In . SVG Version: 6.00 Build 0)  -->
<svg version="1.1" id="Calque_1" xmlns="http://www.w3.org/2000/svg" xmlns:xlink="http://www.w3.org/1999/xlink" x="0px" y="0px"
	 viewBox="0 0 942 814" style="enable-background:new 0 0 942 814;" xml:space="preserve">
<style type="text/css">
	.st0{clip-path:url(#SVGID_2_);}
	.st1{fill:#E6E6E6;}
</style>
<g>
	<defs>
		
			<rect id="SVGID_1_" x="365.9" y="300.8" transform="matrix(-1.836970e-16 1 -1 -1.836970e-16 1242.7581 -90.4277)" width="601.3" height="550.8"/>
	</defs>
	<clipPath id="SVGID_2_">
		<use xlink:href="#SVGID_1_"  style="overflow:visible;"/>
	</clipPath>
	<g class="st0">
		<path class="st1" d="M443.5,467.4c0.6-2.5,2.8-2.1,4.5-2.1c7.4-0.2,14.8-0.3,22.3-0.2c7.3,0,13.7-1.2,16-9.4
			c5.1-2,6.8-9.3,13.9-8.4c3.3,0.4,5.8,0.8,6.7,4.6c0.8,3.1,3.5,0.8,5.2,1.2c6.8,1.6,13.9-0.3,20.9,0c3.4,0.1,7.5,1.4,11.1-0.2
			c1.2-0.5,1.6,0.1,1.5,1.3c0,0.3,0.3,0.7,0.4,1.1c2.7-3.6,3.8,0,5.7,0.9c1.1,0.5,4.4,1.1,3.8-2.5c-0.1-0.8-0.5-1.5,0.3-2
			c0.9-0.6,1.6,0,2.3,0.7c1.1,1,1.8,4.3,4,0.9c0.3-0.5,0.9,0.5,1.2,1c0.5,0.8,0.4,2.5,2,1.8c1.4-0.6,0.4-1.8,0.4-2.8
			c0-2.6,2-4.3,3-6.4c0.7-1.4,2.6-0.7,3.1,0.9c0.5,1.6,0.6,3.3,0.8,4.9c0.2,1.4,0.4,3,1.9,3.3c1.2,0.2,2.7,1.6,3.7,0.4
			c1.3-1.7-1.4-1.8-1.8-2.8c0.8-1.7,2.7-0.6,3.5-2c4.7-7.2,12.4-6.3,19.2-6.3c6.3,0,12.6-0.1,19-0.5c14.4-0.8,28.8-0.5,43.1,1.2
			c5.5,0.7,9.5,3,9.8,9c2.7,0.6,1.3-5.3,3.5-2.7c2.5,2.9,1.8-1,3.4-0.8c13,1.6,26.1-0.1,39.1,0.2c13.3,0.3,26.6-0.4,39.9-0.3
			c6.7,0.1,13.5-1.2,20.4-1.3c2.9,0,5.1-1,4.4-5.1c-0.3-1.7-1.8-5.9,1.4-6c3.4-0.1,1.9,3.8,2,5.9c0.2,5.4,0.6,6.1,6,5.8
			c2.8-0.1,5.4,0.3,8,1.1c1.9,0.6,3.7,2.2,5.8-0.9c1.8-2.6,8.1,0.9,7.7,4.5c-0.8,6.1,0.9,12,0.4,18.2c-0.9,10.2,0.2,20.6,0.9,30.8
			c0.4,6,4.3,9.4,10.3,9.7c10.3,0.6,20.3,3.1,30.5,4.8c4.3,0.7,6.2,4,8.4,7c0.8,1.2,1.4,2.6,2.5,4.7c0.6-4.4-1.7-7.5-1.6-11
			c1.1,0,1.1,1,1.7,1.4c1.2,1,2.4,3.2,4,2.2c1.8-1.2,1.4-3.9,0.3-5.4c-3.4-4.8-0.5-5.6,3.4-6.7c30.5-8.3,61.4-15.3,91.9-23.7
			c59.7-16.3,119.6-32.3,179.4-48.4c44.6-12,89.2-24.1,133.8-36.2c48.1-13.1,96.1-26.3,144.2-39.4c37-10.1,74-20,111-30.1
			c35.5-9.7,70.9-19.7,106.4-29.5c9.3-2.6,18.7-5.1,28.2-7c3.8-0.8,6.3,0,8,3.8c2.5,5.3,6.1,6.5,12.5,5c1.1-0.2,2.2-1.8,3.2-0.3
			c1,1.4-0.7,2-1.5,2.9c-1.7,1.8-2.9,4.3-6.3,3.5c-1.5-0.3-2,1.2-2.1,2.4c-0.5,4.7-2.6,7.3-7.7,6.4c-0.8-0.1-1.8,0.2-2.7,0.5
			c-27.7,8.9-56,15.7-84,23.5c-53.5,14.9-107.2,29.6-160.8,44.3c-79,21.7-158.1,43.3-237.1,64.9c-68.5,18.8-137,37.5-205.5,56.2
			c-21,5.7-42.2,10.9-63.1,17.2c-10.9,3.3-21.8,6.3-32.7,9.3c-1,0.3-2.4,0.6-2.3,1.8c0.1,1.7,1.8,1.4,2.8,1.4c3,0.1,6.1,0,9.1,0.1
			c28.9,0.9,57.8,0.9,86.7,0.8c110-0.3,220-0.4,330-0.7c85-0.2,170-0.5,255-0.9c49.4-0.2,98.8-0.5,148.2-0.8
			c30.4-0.2-12.3-0.4,18.1-0.6c4.5,0,9,0.7,13.6,0.6c4.1-0.1,3.8,3.6,3.7,6c-0.1,2.6,0.4,4.7,1.7,7.2c0.3-1.1,0.6-2,0.9-2.9
			c0.4-0.9,0.2-2.4,1.7-2.2c1.1,0.1,1,1.3,1.3,2.1c1.8,5.5,7,6.6,11.1,2.4c1.3-1.3,2.2-3.9,4.7-2.2c2.3,1.6,6.1,2.4,5.7,6.3
			c-0.6,6-2.1,11.8-5.8,17.7c-1-5.3-1.2-9.7,2.2-13.4c-1.1-1.5-2-0.6-2.6-0.2c-3.4,2.6-6.3,4.1-10.8,1.3c-3.3-2.1-6.9,0.3-7.3,4.1
			c-0.3,3.3-1.4,3.6-4.8,3.8c-29.2,2,14.8,0.3-14.5,0.6c-96.2,1-192.4,0.4-288.6,0.5c-111.2,0.1-222.4,0-333.6-0.2
			c-63.9-0.1-127.9-0.6-191.8-0.1c-16.3,0.1-32.7,0.4-49,0.6c-1.2,0-3.2-0.5-3.3,1.4c-0.1,1.7,1.7,1.8,3,2.1
			c12.5,3.5,25.1,6.9,37.6,10.5c89.8,26.3,180.6,49.4,270.8,74.2c49.4,13.6,98.8,26.8,148.3,40.1c75.9,20.4,151.9,40.6,227.9,60.8
			c32.6,8.7,65.3,17.2,98,25.8c4.8,1.3,9.5,3.2,14.4,4.3c3.2,0.7,6.1,2.7,6.5,6.7c0.3,3.1,3.6,4.7,4.2,7.8c0.1,0.7,1,1.1,1.8,1.1
			c6,0,6,0.1,5,6.3c-0.1,0.7-0.2,1.5-0.4,3.2c-1.4-3.2-3.7-2.4-5.6-2.9c-5.6-1.5-9.8,3.4-14.2,2.6c-5.4-1-11-2-16.4-3.5
			c-17.1-4.6-34.3-9.1-51.4-13.7c-35.7-9.6-71.3-19.3-107.1-28.8c-51.4-13.7-102.8-27.2-154.2-40.9c-55-14.7-110-29.5-165-44.2
			c-50.6-13.5-101.3-27-151.9-40.5c-36.3-9.7-72.5-19.9-108.9-29c-14.5-3.7-29-7.7-43.6-11c-4.9-1.1-9.3-3.6-13.5-6.3
			c-0.9-0.6-1.6-1.3-2.8-1c-9.9,2.2-20.2,1.1-30.2,3.2c-1.2,0.2-2.8,0.2-3,1.6c-0.7,4.9-4.3,9-3.9,14.3c0.5,6,0.4,12.1,0.5,18.2
			c0,2.2,0.4,3.5,2.8,4.4c2.7,0.9,3.2,5.1,0.7,6c-3.4,1.3-3.3,3.6-3.1,6.1c0.3,4.2-1.7,5.9-5.6,6.6c-5.9,1.1-11.7,0.2-17.4-1
			c-1.2-0.2-2.4-0.7-3.5-0.5c-25.2,2.4-50.6,0.6-75.8,1.6c-13.5,0.6-27,0.5-40.4,0.8c-2,0-3.9,0.7-5.8,0.6c-4.7-0.1-5.9,2.1-5.7,6.5
			c0.1,2.6,0.7,3.5,3.2,3.8c3.3,0.3,4.7,2.4,4.6,5.6c-0.1,2.4-0.4,4.8-0.5,7.2c-0.1,3-2,3.5-4.6,4.4c-13.8,4.6-28.3,1.1-42.2,4.4
			c-1.6,0.4-3.4,0.3-5-0.1c-9.4-2.5-18.9-1.4-28.3-1.4c-4.8,0-9-2.8-13.8-2.3c-1,0.1-1.5-1-1.5-2c-0.1-3.9-2.6-3.8-5.7-3.8
			c-11.6-0.2-23.3,0.8-34.8-1.7c-3-0.7-4.1-2.1-3.9-5c0.2-3.8,0.2-7.6,0.6-11.3c0.3-2.5-0.4-4-2.8-4.2c-3.4-0.3-7.5-2.9-9.5,2.4
			c-0.2,0.4-1,0.7-1.6,0.8c-7,0.4-13.7,3.5-20.9,2.7c-2.1-0.2-3.4-0.5-3.6-3c-0.3-3.3-2.3-3.9-5.1-2.6c-1.9,0.9-4.4,2-5.7-0.4
			c-1.1-2.1-1.9-5,0.6-7.1c2.8-2.4,1.2-3.9-0.9-5.3c-2.8-1.7-5.8-2.4-9.1-2.3c-8.2,0.1-16.4-0.2-24.5-0.1c-5.1,0.1-7.8-2.2-9.1-7
			c-1.3-5.2-1-10.6-1-15.8c0.3-40.9,0.6-81.8,1-122.7c0.1-8.2,0.3-16.3,1.5-24.4c0.3-2.3,0.5-4.3,3.4-4.4c-1.9,2.9-1.4,6.2-1.4,9.3
			c-0.2,36.7-0.4,73.3-0.6,110c-0.1,15.6,0.1,31.2,0,46.8c0,4.2,1.6,6,5.9,5.9c6.4-0.1,12.7,0,19.1,0.2c4.1,0.1,7.8-3.2,8.2-5.2
			c0.7-3.4,2.6-8.4-2.5-11.2c-0.5-0.3-0.8-1.8-0.6-2c3.5-2.8,1.2-5.2,0.1-8.2c-0.9-2.7-0.2-6-0.2-9c0.2-29.8,0.4-59.7,0.6-89.5
			c0-1.5,0-2.8,1.9-3.6c2.7-1.1,2.5-3.9,0.7-4.9c-2.8-1.5-1.6-3.3-0.6-4.3c2.2-2.2,0.9-4.3,0.3-6.6c-0.3,1-0.5,2-1,4
			c-0.5-4.7-0.9-8.1-1.1-11.5c-0.1-1.8-0.8-4,2.3-4.5c1.5-0.2,1.6-2.5,0.7-2.8c-4.3-1.4-2.5-4.9-2.6-7.4c-0.2-4.3-2.1-5.9-6.2-5.8
			C459,467.2,451.2,467.2,443.5,467.4z M521.4,591.4c2.6-0.1,3.8,1.2,5.3,1.8c5.3,2.1,10.7,4.5,16.5,4.3c1.8-0.1,5.2,0.8,5.3-1.7
			c0.1-2-3.1-2.4-5.2-2.6c-22.8-2.6-35.2-21.4-38.4-40.9c-2.8-17.2,4.9-31.1,19.8-40.3c16.8-10.3,33.9-6.7,49.4,1.9
			c13.7,7.6,19.6,21.6,22,37c0.1,0.9-0.3,2.2,1.3,2.8c2-4.8,2.7-9.4,1-14.5c-1.6-4.7-3-9.6-4.5-14.4c4.7,5.2,6.3,11.6,7.8,18
			c1.7,7.5,0.3,15.1,0.6,22.6c0.1,2.8,1.3,4.7,4,5.3c3.9,0.9,9.9-4.5,9.5-8.6c-0.1-1.3-0.7-2.6,0-3.9c1,0.8,1.6,2.2,2.9,2
			c4.5-0.7,5,2.6,5.3,5.6c0.4,3.3,2.6,5.8,2.8,9c0,0.1-0.1,0.3-0.2,0.4c-4.8,2.1-2.9,5.8-1.7,9.4c-3-1.2-4.2-3.7-6.4-5.1
			c-1.6-1.1-9.6,1.8-9.2,3.5c0.5,2-0.8,3.4-1.1,5.2c1.7,0.5,3.9-0.9,4.7,1.6c0.6,2.1-0.3,3.8-1.5,5.5c-1,1.3-2.3,1.9-3.9,1.9
			c-2.3,0.1-4.3,1-6.4,2.5c2.5,2.2,5.9,0.2,8.7,2.5c-4.4,0.9-8.2,1.8-11.9,2.6c0,0.5,0.1,0.9,0.1,1.4c7.5,0,15.1,0,22.6,0
			c4.3,0,8.2,0.9,11.6,4c8,7.3,17.3,12,27.8,14.7c1.5,0.4,3,2.1,5.2,0.2c-3.3-0.9-5.6-3.1-8.7-3.4c-2.3-0.2-3.3-1.2-2.7-3.6
			c0.7-2.9-0.5-5.1-3.2-6.3c-1.3-0.5-3.1-0.5-2.3-2.4c0.9-2.1,2.5-0.7,3.8-0.1c3.6,1.5,7.3,2.9,10.9,4.3c2.1,0.8,3.5,0.5,3.8-2.1
			c0.3-2.1,0.7-4.3,3.1-5.7c-1.4-0.2-2.3-0.2-3.2-0.4c-19.7-4.8-38.4-25.7-41.4-45.9c-0.5-3.3,0.7-4.4,3.9-4.4
			c-4.6-0.8-5-1.2-4.8-5.9c0.8-17.6,7.4-32.2,20.7-44.2c24-21.5,67.1-18.2,86.3,13.6c1.7,2.9,3,6.1,5.5,8.7c1.1-1.7,0.1-2.7-0.4-3.7
			c-3.5-7.5-8.4-14-14.4-19.7c-3.3-3.1-2.3-5.8,2.1-7c2.6-0.7,4.5,0.4,6.2,2c3.5,3.3,7.2,6.3,8.4,11.4c0.9,3.9,2.1,8.1,4.3,11.4
			c2.6,3.8,0.4,5.6-2.1,6.7c-3.7,1.7-3.5,3.7-1.6,7.1c1.2-3.1,3.5-4.7,5.2-6.7c0.7-0.9,1.3-2.3,2.8-1.7c1.3,0.5,1.5,1.8,1.7,3
			c0.1,0.7,0.2,1.5,0.4,2.2c0.2,1.1,0.5,2.3,2,1.9c1.5-0.4,1-1.6,0.9-2.6c-0.3-1.9-1.5-3.6-0.4-6.7c1.8,5.2,4,9.5,4.7,14
			c2.1,13.1,0.6,26.1-4,38.3c-8,21.2-23.6,35.1-45.1,42.4c-3.6,1.2-7.4,1.8-10.8,4.3c2.3,1,4,0.3,5.7-0.1
			c30.3-8.5,49.4-28.3,56.4-58.6c5.3-23.1,1.8-45.2-14.3-63.9c-10-11.6-21.1-21.8-36-26.7c-28.3-9.4-54.9-6.9-78.7,12.5
			c-2.2,1.8-4.5,2.9-7.4,2.9c-7.9,0-15.7-0.1-23.6,0.1c-19.7,0.5-39.3,0.8-59,0.6c-9.5-0.1-19.1,0.1-28.6,0.2
			c-5.8,0.1-9.9,2.3-12.5,8c-7.5,17-9.5,35-9.5,53.3c0,15.1,2.1,29.9,8.4,43.8c2.7,6,7.6,9.8,14,10.2c9.7,0.6,19.5,0.2,29.2,0.2
			c0.1-0.5,0.3-0.9,0.4-1.4C531.6,605.7,527.7,597.4,521.4,591.4z M1281.2,549.2c-0.5-1.8-1.6-1.5-2.4-1.8c-4.1-1.7-7.9,1.4-12,0.7
			c-10-1.6-20.1-0.6-30.2-1.9c-9.9-1.2-20.1-0.4-30.2-0.4c-39.4-0.3-78.7-0.6-118.1-0.8c-24.6-0.1-49.3,0.1-73.9,0
			c-34.3-0.1-68.6,0.4-102.8-0.8c-12.7-0.4-25.4-0.1-38.1-0.3c-2.4,0-5.7,2-6.3-2.7c-0.1-1.1-1.2-0.2-1.8-0.1
			c-5.9,1.4-10.7,5.9-17.2,5.8c-1.1,0-2.1,1.3-2.2,2.6c-0.1,1.7,1.3,2.4,2.7,2.6c3.1,0.5,6.3,1.2,9.4,1.3c3.4,0.1,7.5,2.1,10-2.4
			c0.3-0.6,1.9-0.7,2.9-0.7c8.3,0,16.7-0.4,25,0.3c8,0.6,15.8-2.6,23.8-0.1c0.1,0,0.3,0,0.5,0c18.9,0.1,37.8,0,56.8,0.2
			c18.6,0.2,37.2-0.8,55.8,0.7c8,0.6,15.9-1.3,24.1,0.4c4.9,1,10.9-1.1,16.5-1.1c22.4,0,44.8-0.4,67.2-0.5
			c40.6-0.2,81.2-0.1,121.7-0.5C1268.5,549.6,1274.8,549.7,1281.2,549.2z M710.9,511.1c-2-2.4-4.6-3.5-7.1-4.8
			c-1.2-0.6-2.9-1.2-1.7-2.9c1.2-1.7,0.5-2.5-0.8-3.3c-1.4-0.9-2.7-0.4-3.6,0.8c-1.2,1.5-2.4,1.7-4.3,1.3c-15.4-3.4-29.8-1-42.3,9
			c-2.3,1.9-3.9,4.5-6.6,0.5c-1.4-2-2,0.9-3.1,1.1c-0.8,0.1-1.5,0.7-0.8,1.6c1,1.2,1.7,0.2,2.6-0.3c0.8-0.5,2.4,0.4,1.8,0.7
			c-2.3,1.4-0.5,3.6-1.5,5c-5.8,8.3-7.5,17.7-8.6,27.6c-1.9,17.7,6.4,30.5,19.1,41.3c0.9,0.8,2.6,2.2,3.6,1c1.4-1.7-1.1-1.9-1.8-2.9
			c-0.6-0.8-1.6-1.4-2.4-2.1c-1.2-1-2.5-1.9-1.2-3.7c1.5-2.2,2.5-0.3,3.7,0.4c11,6.8,22.5,10.3,35.8,7.4c29.6-6.5,42-41.8,25.5-65.7
			c-1.1-1.6-0.6-4.2-2.5-4.9c-3.8-1.5-5.7-5-9.3-7C707.5,510.5,708.9,512.2,710.9,511.1z M553.6,584.3c1.2,0.9,0.1,3.4,2.9,2.5
			c7.4-2.4,14.2-5.8,19.3-11.8c1.1-1.3,3.3-3,1.5-5.1c-1.6-1.8-3.8-2.9-6.5-1.3c-4.6,2.7-9.3,4.8-14.7,5.6c-1.7,0.3-4.5,2.2-3.3,3.9
			C554.6,580.3,555.9,581.9,553.6,584.3z M857.5,533.5c-0.2-3.9-0.8-7.8-3.4-9.8c-2.4-1.9-4.8,1.6-7.2,2.6c-0.4,0.2-0.9,0.2-1.3,0.4
			c-3.4,2.1-7.6,2.7-10.8,5.4c-2.2,1.9-1.8,2.9,0.6,3.6c2.6,0.7,5.2,1.5,7.7,2.5c3.3,1.3,6.8,1.6,10.2,0.4
			C855.8,537.7,858.1,536.4,857.5,533.5z M591.9,667.5c9,0.2,9.3-0.1,9-7.8c-0.1-2.7-0.9-3.4-3.8-3.3c-2.9,0-4.9,3.2-7.5,2.1
			c-4.1-1.6-4.3,0.6-4.4,3.5C585.1,667,585.4,667.3,591.9,667.5z M743,553.6c1,1.4,1.2,3.7,3.8,3.1c2.1-0.5,3.1-1.8,3.4-3.8
			c0.2-1.6,0.5-3.3,0.6-4.9c0.3-3.2-0.8-5-4.4-4.2c-2.6,0.6-4-0.2-4.4-2.9c-0.1-0.8-0.1-2.2-2.3-2.2c2.3,6.6,1.4,13.2,0.2,20.4
			C742.4,557.3,742,555.2,743,553.6z M1310.1,548.4c25.1,1.7,50.2,1,75.3,0.5c-17.9-1.2-35.8,0-53.6-1.5
			C1324.6,546.8,1317.3,548,1310.1,548.4z M657.3,664.6c-1.1-1.3-5.2-1.3-1.4-3.9c1.4-0.9,1.4-2.3-0.5-3c-1.7-0.6-3.4-1.4-5.1-1.8
			c-2.3-0.5-4.3,0.4-4.3,2.7c0,3.7-0.5,6.6-5.2,6.8C646.4,665.8,651.8,667.9,657.3,664.6z M537.4,520.9c-4,0-7.9,0.3-11.1,3.1
			c-0.8,0.7-1.7,1.5-1.1,2.7c0.5,1,1.5,0.8,2.4,0.5c4.3-1,8.5-2,12.8-3c1-0.2,2.3-0.1,2.1-1.7c-0.2-1.3-1.3-1.6-2.4-1.6
			C539.2,520.9,538.3,520.9,537.4,520.9z M620.3,663.6c-0.1-5.6-1.6-8.7-4.2-8.2c-4.1,0.8-2.3,4.3-2.5,6.7c-0.3,2.5,0,5.1,3.6,4.9
			C619,667,620.7,666.3,620.3,663.6z M865.2,572.3c1.4,0,2.5,0,3-1.2c0.4-1-0.6-1.6-1.2-2.2c-1.5-1.4-1.8-3.4-2.6-5.2
			c-1.2-2.6-3.2-2.8-4.7-0.3c-1.1,1.7-2.3,3.9-1,6C860.1,571.8,863,571.7,865.2,572.3z M542.6,558c-1.3,0-2.4,0.2-3.1,1.4
			c-0.6,1-0.2,1.9,0.7,2.3c3.8,1.6,1.2,2.2-0.4,2.9c-1,0.4-1.6,0.9-1.3,2c0.4,1.2,1.2,1.2,2.1,0.4c1.6-1.4,3.1-0.3,4.6,0.1
			c1,0.3,2.2,0.5,2.8-0.6C549.8,563.4,546.4,558.1,542.6,558z M1426.6,545.6c-5.6,0-10.6-0.1-15.6,0c-2.3,0-6.4-1.1-6.3,1
			c0.1,3.3,4.2,1.7,6.4,1.7C1416.1,548.3,1421.5,549.6,1426.6,545.6z M556,539.8c0.6,0.8-0.2,1.4-0.3,2.1c-0.3,1.3-1.1,2.9,1,3.2
			c2.3,0.3,1.5-1.5,1.6-2.8c0.1-1.2,0.3-2.4,0.6-3.5c0.5-2.5-0.6-3.9-3.1-3.7c-1.9,0.2-5.2-0.6-5.4,1.9c-0.3,2.9,2.9,2.2,4.8,2.5
			C555.5,539.6,555.8,539.7,556,539.8z M595.4,577.8c0.2,1.7,0.7,3.4,2.3,3c3.4-0.9,1.5-5.3,4.2-7.2c0.7-0.5-1.2-2.6-2.5-2.2
			C596.1,572.3,596.7,575.8,595.4,577.8z M583.5,450.3c-1.9,1.7-2.5,4-1.3,5.7c1.2,1.8,3.3,0.3,4.9-0.4c0.5-0.2,0.9-1.2,1.5-0.7
			c0.9,0.7,1.7,1.8,2-0.2c0.3-1.6-0.6-3-1.8-4c-1-0.9-1.5,0.2-2,0.9c-0.7,0.9-0.8,2.4-2.4,2.3C583.2,452.9,585.4,451.6,583.5,450.3z
			 M1491.7,545.5c5.5,1.4,10.4,5.6,17.9,3.7C1503.2,546,1497.2,546.5,1491.7,545.5z M513.2,457.9c-3.5,1.1-6.6,2.9-8.5,6.2
			c-0.3,0.4-0.2,1.2,0,1.6c0.4,0.7,1.1,0.4,1.5-0.1c2.2-2.3,4.9-3.9,7.7-5.5c0.4-0.2,0.8-1,0.8-1.5
			C514.6,458,513.9,457.8,513.2,457.9z M553.9,529.3c-1.6,0.1-3.9-1.6-3.9,1.3c0,2.6,2.5,2.1,4.1,2.1c1.6,0,4.4,1.1,4.5-1.2
			C558.7,528.4,555.6,529.4,553.9,529.3z M576.6,663.7c-0.1,1.6-0.6,3.2,1.4,3.4c1.7,0.1,3.2-0.8,2.9-2.5c-0.3-1.8-0.8-4.7-2.6-4.8
			C575.9,659.6,577.6,662.6,576.6,663.7z M1728,541.3c0,0.3,0,0.5,0,0.8c2.6,0.6,5.1,1.2,7.7,1.8c1,0.2,2.3,0.7,2.6-0.8
			c0.3-1.6-1.1-2.1-2.3-2.1C1733.3,540.9,1730.7,541.1,1728,541.3z M1580.2,545.4c-3.9,0-7.8,0.2-12.1,2.3
			C1573.2,549,1576.7,547.1,1580.2,545.4z M552,549.7c0.4,0.9,0.5,2.3,2.1,1.5c1.4-0.6,3.5-0.4,3.5-2.7c0-1.3-1.1-1.5-1.9-1
			C554.5,548.2,552.1,547.1,552,549.7z M558.4,522.9c-1.1-0.8-1.2-3-3.4-3.3c-0.7-0.1-1.2,0.8-0.8,1.2c1.2,1.4,0.5,4.2,3.2,4.2
			C558.4,525.1,558.5,524.1,558.4,522.9z M575.7,605.8c0,0.1-0.1,0.2-0.1,0.3c4.6,0,9.3,0,13.9,0c0-0.1,0-0.2,0-0.3
			C584.9,605.8,580.3,605.8,575.7,605.8z M567.2,453.9c0.3,1.3,0.9,2.3,2.3,2.2c1.2-0.1,1.2-1.2,1.1-2.1c-0.2-1.1-0.6-2.2-1.8-2.3
			C567.5,451.6,567.4,452.8,567.2,453.9z"/>
		<path class="st1" d="M1774.6,581.3c0,2-0.5,3.6-2,4.6c-1.1,0.7-2.3,0.7-3.4,0c-1.1-0.7-1-1.7-0.6-2.8c0.3-0.8,0.6-1.7,1-2.5
			c1.2-1.9,0.4-5.9,3.2-5.5C1774.9,575.4,1773.6,579.4,1774.6,581.3z"/>
		<path class="st1" d="M630.2,495.1c15-14,32.2-22.2,53.1-20.9C664.1,477.5,645.3,481.6,630.2,495.1z"/>
		<path class="st1" d="M573.2,495.5c15.8-1.5,31.5-1.2,47.2,0.2C604.6,496.3,588.9,498.4,573.2,495.5z"/>
		<path class="st1" d="M505.5,600.2c-9.3-11-10.8-24.3-10.9-38C497.4,575.1,498.9,588.4,505.5,600.2z"/>
		<path class="st1" d="M642.8,605c-3.8-1.7-7.1-3.8-9.2-7.5c-1.7-2.8-4.2-5.1-7.3-6.5c-1-0.5-2.6-1-1.5-2.6c0.9-1.3,2.2-1.4,3.4-0.1
			c1.5,1.6,3,2.4,5.2,1.3c1-0.5,2,0.2,1.7,1.2c-1.6,5.2,2,7.7,5,10.7C641.2,602.4,641.9,603.7,642.8,605z"/>
		<path class="st1" d="M700.9,489.2c0.2-2,0.8-3.8,2.6-3.3c2.6,0.7,5.9,1,6.6,4.4c0.3,1.5-1,3.2-2.7,2.8
			C704.8,492.6,701.4,492.6,700.9,489.2z"/>
		<path class="st1" d="M501.1,510c0.6-9.1,6-15.2,13.1-14.6C507.1,497.9,502.9,502.8,501.1,510z"/>
		<path class="st1" d="M749,525c-3.6-5-5.8-10.9-9-16.1c0.4-0.2,0.8-0.5,1.2-0.7c3.1,5.3,6.2,10.5,9.3,15.8
			C750,524.4,749.5,524.7,749,525z"/>
		<path class="st1" d="M644,613.3c-5-1.1-9.6-3-12.3-7.8C636,607.7,639.7,610.9,644,613.3z"/>
		<path class="st1" d="M609.4,506.2c1.4,0.6,2.6,1.7,2.8,3.1c0.1,1.7-1.4,2.2-2.8,2.2c-1.4,0-2.9-0.4-2.8-2.1
			C606.6,507.8,607.8,506.8,609.4,506.2z"/>
		<path class="st1" d="M497.2,522.5c0.5,3.2-0.2,6.6-2.2,11.4C495.1,529.4,496.2,526,497.2,522.5z"/>
		<path class="st1" d="M682.1,508.3c20.3-0.2,38.3,15.8,39.7,36.2c0.5,7.3-0.4,14.7-4.6,21.2c-1,1.5-1.8,3.4-4,1.2
			c-0.9-0.9-2.5-1-3.4-0.1c-4.4,4.1-10.1,4.9-15.6,6.4c-2.4,0.7-2.9,1.7-1.7,3.9c0.7,1.2,4.1,1.1,2.3,2.8c-2.2,2.1-1.9,5.9-6.1,6.6
			c-18,3.1-36.2-6.8-43-23.9C635.3,536.2,653.8,508.6,682.1,508.3z M661.2,530.8c4-2.5,7.6-3.8,11.5-4.4c0.8-0.1,1.5-0.4,1.6-1.3
			c0.1-0.9-0.5-1.3-1.2-1.7C668.8,521.4,662.3,525,661.2,530.8z M693.3,539.6c2-0.6,3.7,0.4,5.4,0.7c0.8,0.2,1.6,0,1.8-0.9
			c0.2-0.8-0.4-1.7-1.1-1.6c-2.9,0.5-5.6-0.6-8.4-0.8c-0.7,0-1.5,0.5-1.4,1.4c0.1,0.4,0.7,1,1.2,1.1
			C691.6,539.8,692.5,539.6,693.3,539.6z M694,530.8c-1.2-0.1-2.2,0.2-2.2,1.6c0,1.8,1.4,2.1,2.9,2.2c1,0,2.6,0.1,2.6-1.2
			C697.1,531.6,695.6,531,694,530.8z"/>
		<path class="st1" d="M468.5,555.2c1.2,2,0.7,4.3,0.7,6.5c-0.1,22.9-0.2,45.7-0.3,68.6c0,3.2,0.7,6.8-4.5,6.3
			c-2.4-0.2-4.3-3.8-3.6-7.3c1.5-7.8,0.3-15.7,0.7-23.5c0-1,0-2.4-1.4-2.4c-1.8-0.1-1.6,1.5-1.6,2.7c-0.1,3.8,0,7.6,0,11.4
			c0,2.2,0.3,4.3-1.9,6.1c-1.6,1.3-1,3.7,0.4,4.9c2.6,2.1,1.9,4.9,1.2,7c-0.7,2.3-3.5,1.1-5.3,1.2c-8.2,0.2-8.1,0.2-8.1-8
			c0.1-26.5,0.2-53,0.2-79.5c0-5.7,0.1-5.8,4.9-3.4c3.2,1.6,6.5,2.5,10.1,3c1.9,0.3,4.9-0.7,4.7,4.7c-0.2,6.4,0.2,13.1,0.4,19.7
			c0.2,7,0.1,13.9,0.1,20.9c0,1.1-0.3,2.4,1.7,4.3c0-15,0-29,0-42.9C467.5,555.2,468,555.2,468.5,555.2z M451.7,561.6
			c0.1,3.3,3,6.2,6.4,6.1c2.8-0.1,4.5-1.6,4.6-4.5c0-3.2-3.3-6.1-6.7-6.1C452.7,557.1,451.8,559.1,451.7,561.6z M451.4,572.4
			c0,4.7,6.3,8.4,9.5,6.6c1.2-0.7,1.6-1.9,1.2-3.1c-0.4-1.3-1.2-0.5-2.1-0.3c-4,1-5.2-0.2-4.2-4c0.3-1.2-0.2-1.7-1.1-2.1
			c-1.1-0.5-2.2-0.2-2.8,0.8C451.5,571.2,451.5,572.3,451.4,572.4z M460.9,590.3c-1.6,1.3,1,4.6-2.5,4.5c-1.9-0.1-3.6-0.7-4.1-2.9
			c-0.1-0.4,0-0.9-0.1-1.3c0-0.7-0.4-1.3-1-1.2c-0.5,0.1-1.2,0.5-1.3,0.9c-0.8,3.3,1.2,5.5,3.5,7.2c1.8,1.4,4.2,1.8,5.8,0
			C463.1,595.4,463.1,592.8,460.9,590.3z M459,587c1.1-0.1,2.4,0,3-1.4c0.4-0.9,0.5-1.8-0.2-2.5c-1.2-1.4-1.7,0.6-2.6,0.6
			c-1.2-0.1-2.4-0.2-3.5-0.4c-2-0.4-4-0.9-6.1-1.5c-0.8-0.2-1.5-0.2-1.9,0.6c-0.3,0.7,0.1,1.4,0.7,1.4
			C452.2,583.9,455.1,587.2,459,587z"/>
		<path class="st1" d="M459.1,533.2c1.3,2,0.8,2.9-1.5,2.4c-1.6-0.3-3.2-0.9-4.8-1.4c-2-0.6-4.2-1.9-4.5,1.9
			c-0.1,1.1-1.2,1.5-2.1,1.3c-1.6-0.4-1.1-1.9-1.1-3c0-11.5,0-23,0.1-34.5c0-8.6,0.2-17.3,0.1-25.9c0-3.1,1-4.6,4.2-4.3
			c1.2,0.1,2.4,0,3.6,0c6.4,0,6.6,0.3,3.7,5.9c-0.8,1.5-0.6,2.9,0.4,4.2c0.6,0.8,1.5,1,2.4,0.7c1.6-0.5,2.5-1.7,2.5-3.4
			c0-1.2-0.1-2.4-0.2-3.6c-0.2-2.4,0.2-4.1,3.3-4c2.9,0,4,1.1,4,4c-0.1,13.9-0.1,27.9-0.1,41.8c0,9.8,0.1,19.7,0,29.5
			c0,1.3,0.9,3.7-2.1,3c-0.1,0-0.1-0.3-0.1-0.4c0-0.1,0.1-0.3,0.2-0.4c1.7-7.6,0.6-15.3,0.8-23c0-1.9-1.4-3.3-2.8-4.5
			c-2.1-2-5.1-3.7-2.2-7.4c0.7-0.9-0.1-2.5-1.2-3.1c-1.4-0.7-1.2,0.8-1.6,1.5c-1.4,2.5-2.7,1.3-4.3,0.1c-1.8-1.4-2.9-4.1-6.2-4.2
			c0.8,2.3,2.4,3.3,3.6,4.5c1.5,1.5,2.9,2.9,0.1,4.5c-1.1,0.6-2.1,1.7-1.1,3c0.9,1.3,2.2,0.5,3.2-0.2c1.6-0.9,3.2-2.1,4.9-0.6
			c3.1,2.8,5.9,5.5,5.3,10.4c-0.5,4.5-0.2,9.1-0.3,13.6c-0.1,2,0.1,3.9,1.9,5.3c-5.7-0.1-10.5-4.1-16.2-4.2c-1,0-2.7-0.5-1.6-2.3
			c0.8-1.3,0.4-4.1,3.4-3.1c1.9,0.6,3.8,1.2,5.7,1.6c2,0.4,3.8-0.2,4.1-2.4C462.7,534.3,461.7,532.8,459.1,533.2
			c5.5-4.1,5.5-6.1,0.2-9.5c-0.4-0.2-0.7-0.6-1.1-0.8c-1.7-1.4-3.6-2.8-5.6-0.8c-2,2-0.7,4.2,0.3,6.2
			C454.2,530.9,457.6,530.8,459.1,533.2z M461.9,493.5C461.9,493.5,461.8,493.5,461.9,493.5c-0.1-3-0.1-6-0.1-9c0-1-0.4-1.9-1.5-1.9
			c-1.2,0-1.5,0.9-1.5,1.9c-0.1,5.7-0.1,11.4-0.2,17.1c0,1.1,0.3,2.3,1.6,2.3c1.3,0,1.6-1.1,1.6-2.3
			C461.9,499,461.9,496.2,461.9,493.5z"/>
		<path class="st1" d="M453.9,561.7c0.1-1.2,1-1.6,1.9-1.3c1.7,0.5,3.9,0.5,4.4,2.5c0.4,1.4-1.1,1.6-2.1,1.4
			C456.4,564,454.5,563.8,453.9,561.7z"/>
	</g>
</g>
</svg>
