<?xml version="1.0" encoding="utf-8"?>
<!-- Generator: Adobe Illustrator 24.2.1, SVG Export Plug-In . SVG Version: 6.00 Build 0)  -->
<svg version="1.1" id="Calque_1" xmlns="http://www.w3.org/2000/svg" xmlns:xlink="http://www.w3.org/1999/xlink" x="0px" y="0px"
	 viewBox="0 0 35.2 40.2" style="enable-background:new 0 0 35.2 40.2;" xml:space="preserve">
<path d="M27.6,25.1c-1.8,0-3.4,0.6-4.7,1.6l-8-5c0.2-1.1,0.2-2.2,0-3.3l8-5c1.3,1,2.9,1.6,4.7,1.6c4.2,0,7.5-3.4,7.5-7.5
	S31.8,0,27.6,0s-7.5,3.4-7.5,7.5c0,0.6,0.1,1.1,0.2,1.6l-8,5c-1.3-1-2.9-1.6-4.7-1.6c-4.2,0-7.5,3.4-7.5,7.5s3.4,7.5,7.5,7.5
	c1.8,0,3.4-0.6,4.7-1.6l8,5c-0.1,0.5-0.2,1.1-0.2,1.6c0,4.2,3.4,7.5,7.5,7.5s7.5-3.4,7.5-7.5S31.8,25.1,27.6,25.1z"/>
</svg>
