<?xml version="1.0" encoding="utf-8"?>
<!-- Generator: Adobe Illustrator 24.2.1, SVG Export Plug-In . SVG Version: 6.00 Build 0)  -->
<svg version="1.1" id="Calque_1" xmlns="http://www.w3.org/2000/svg" xmlns:xlink="http://www.w3.org/1999/xlink" x="0px" y="0px"
	 viewBox="0 0 34.3 34.3" style="enable-background:new 0 0 34.3 34.3;" xml:space="preserve">
<path d="M33.8,31.7l-8.1-8.1c2-2.5,3.2-5.7,3.2-9.1C29,6.5,22.5,0,14.5,0S0,6.5,0,14.5S6.5,29,14.5,29c3.5,0,6.6-1.2,9.1-3.2
	l8.1,8.1c0.3,0.3,0.7,0.4,1.1,0.4s0.8-0.1,1.1-0.4C34.4,33.2,34.4,32.3,33.8,31.7z M3,14.5C3,8.2,8.2,3,14.5,3S26,8.2,26,14.5
	S20.8,26,14.5,26S3,20.8,3,14.5z"/>
</svg>
