<?xml version="1.0" encoding="utf-8"?>
<!-- Generator: Adobe Illustrator 24.2.1, SVG Export Plug-In . SVG Version: 6.00 Build 0)  -->
<svg version="1.1" id="Calque_1" xmlns="http://www.w3.org/2000/svg" xmlns:xlink="http://www.w3.org/1999/xlink" x="0px" y="0px"
	 viewBox="0 0 55.8 44.6" style="enable-background:new 0 0 55.8 44.6;" xml:space="preserve">
<g>
	<path d="M34.9,8.4c2.3,0,4.2-1.9,4.2-4.2S37.2,0,34.9,0c-2.3,0-4.2,1.9-4.2,4.2S32.5,8.4,34.9,8.4z M34.5,18.9
		c0.5,0.4,1.1,0.6,1.7,0.6h5.6c1.5,0,2.8-1.2,2.8-2.8c0-1.5-1.2-2.8-2.8-2.8h-4.6L31,9c-1-0.8-2.5-0.8-3.6,0.1l-9.8,8.4
		c-1.2,1-1.3,2.8-0.3,3.9c0.2,0.2,0.4,0.4,0.6,0.5l7.1,4.8v9.7c0,1.5,1.2,2.8,2.8,2.8s2.8-1.2,2.8-2.8V25.1c0-0.9-0.5-1.8-1.2-2.3
		l-3.6-2.4l5.1-4.3L34.5,18.9z M44.6,22.3c-6.2,0-11.2,5-11.2,11.2s5,11.2,11.2,11.2s11.2-5,11.2-11.2S50.8,22.3,44.6,22.3z
		 M44.6,40.6c-3.9,0-7.1-3.2-7.1-7.1s3.2-7.1,7.1-7.1s7.1,3.2,7.1,7.1S48.6,40.6,44.6,40.6z M11.2,22.3C5,22.3,0,27.3,0,33.5
		s5,11.2,11.2,11.2s11.2-5,11.2-11.2S17.3,22.3,11.2,22.3z M11.2,40.6c-3.9,0-7.1-3.2-7.1-7.1s3.2-7.1,7.1-7.1s7.1,3.2,7.1,7.1
		S15.1,40.6,11.2,40.6z"/>
</g>
</svg>
