<?xml version="1.0" encoding="utf-8"?>
<!-- Generator: Adobe Illustrator 24.2.1, SVG Export Plug-In . SVG Version: 6.00 Build 0)  -->
<svg version="1.1" id="Calque_1" xmlns="http://www.w3.org/2000/svg" xmlns:xlink="http://www.w3.org/1999/xlink" x="0px" y="0px"
	 viewBox="0 0 43 43" style="enable-background:new 0 0 43 43;" xml:space="preserve">
<g>
	<path d="M21.5,0C9.6,0,0,9.6,0,21.5S9.6,43,21.5,43S43,33.4,43,21.5S33.4,0,21.5,0z M21.5,8.3c4.2,0,7.6,3.4,7.6,7.6
		s-3.4,7.6-7.6,7.6s-7.6-3.4-7.6-7.6S17.3,8.3,21.5,8.3z M21.5,38.1c-5.1,0-9.6-2.3-12.7-5.9c1.6-3.1,4.8-5.2,8.5-5.2
		c0.2,0,0.4,0,0.6,0.1c1.1,0.4,2.3,0.6,3.5,0.6s2.4-0.2,3.5-0.6c0.2-0.1,0.4-0.1,0.6-0.1c3.7,0,6.9,2.1,8.5,5.2
		C31.1,35.8,26.6,38.1,21.5,38.1z"/>
</g>
</svg>
