<?xml version="1.0" encoding="utf-8"?>
<!-- Generator: Adobe Illustrator 24.2.1, SVG Export Plug-In . SVG Version: 6.00 Build 0)  -->
<svg version="1.1" id="Calque_1" xmlns="http://www.w3.org/2000/svg" xmlns:xlink="http://www.w3.org/1999/xlink" x="0px" y="0px"
	 viewBox="0 0 60 60" style="enable-background:new 0 0 60 60;" xml:space="preserve">
<style type="text/css">
	.st0{fill:none;stroke:#000000;stroke-width:6;stroke-miterlimit:10;}
</style>
<circle class="st0" cx="30" cy="30" r="27"/>
<g>
	<path d="M19,15.7c0.4,0,0.8,0.1,1.2,0.3c0.4,0.2,0.7,0.5,1,0.8l10,15.4l-2.1-0.1l10.2-15.3c0.5-0.7,1.2-1.1,2-1.1
		c0.7,0,1.2,0.2,1.8,0.7c0.5,0.5,0.8,1.1,0.8,1.8V42c0,0.7-0.2,1.3-0.7,1.8c-0.5,0.5-1.1,0.7-1.9,0.7c-0.8,0-1.4-0.2-1.9-0.7
		c-0.5-0.5-0.7-1.1-0.7-1.8V22.7l1.6,0.4L32,35.8c-0.2,0.3-0.6,0.6-0.9,0.8c-0.4,0.2-0.7,0.3-1.1,0.3c-0.4,0-0.7-0.1-1.1-0.3
		c-0.4-0.2-0.7-0.5-0.9-0.8l-7.9-12.4l1.1-2.2V42c0,0.7-0.2,1.3-0.7,1.8c-0.4,0.5-1,0.7-1.7,0.7c-0.7,0-1.2-0.2-1.7-0.7
		c-0.4-0.5-0.7-1.1-0.7-1.8V18.2c0-0.7,0.3-1.3,0.8-1.8C17.7,16,18.3,15.7,19,15.7z"/>
</g>
</svg>
