<?xml version="1.0" encoding="utf-8"?>
<!-- Generator: Adobe Illustrator 24.2.1, SVG Export Plug-In . SVG Version: 6.00 Build 0)  -->
<svg version="1.1" id="Calque_1" xmlns="http://www.w3.org/2000/svg" xmlns:xlink="http://www.w3.org/1999/xlink" x="0px" y="0px"
	 viewBox="0 0 45 44.7" style="enable-background:new 0 0 45 44.7;" xml:space="preserve">
<style type="text/css">
	.st0{fill:#FFFFFF;}
</style>
<path class="st0" d="M22.5-0.1C10.1-0.1,0,9.9,0,22.4s10.1,22.5,22.5,22.5S45,34.8,45,22.4S34.9-0.1,22.5-0.1z M37.9,30.6
	c-0.3,0.7-1.6,1.3-4.1,1.7c-0.1,0.2-0.2,0.9-0.4,1.4c-0.1,0.3-0.3,0.5-0.7,0.5h0c-0.6,0-1.2-0.3-2.3-0.3c-1.6,0-2.2,0.4-3.4,1.2
	c-1.3,0.9-2.6,1.7-4.5,1.7c-1.9,0.1-3.5-1-4.4-1.7c-1.3-0.9-1.8-1.2-3.4-1.2c-1.1,0-1.9,0.3-2.3,0.3c-0.5,0-0.7-0.3-0.8-0.5
	c-0.2-0.6-0.3-1.3-0.4-1.5c-1.3-0.2-4.1-0.7-4.1-1.9c0-0.3,0.2-0.6,0.5-0.7c4.2-0.7,6.1-5,6.2-5.2c0,0,0,0,0,0
	c0.2-0.5,0.3-0.8,0.1-1.1c-0.3-0.7-1.6-1-2.2-1.2c-1.4-0.6-1.6-1.2-1.5-1.7c0.1-0.8,1.3-1.3,2-0.9c0.5,0.3,1,0.4,1.4,0.4
	c0.3,0,0.5-0.1,0.6-0.1c-0.1-2.2-0.4-5.3,0.3-7c2-4.6,6.4-4.9,7.6-4.9c0.1,0,0.6,0,0.6,0c3.1,0,6.2,1.6,7.6,4.9
	c0.8,1.7,0.5,4.8,0.3,7c0.1,0.1,0.3,0.1,0.5,0.1c0.4,0,0.8-0.1,1.3-0.4c0.4-0.2,0.9-0.1,1.2,0c0.6,0.2,0.9,0.6,0.9,1.1
	c0,0.6-0.5,1.1-1.6,1.5c-0.1,0.1-0.3,0.1-0.4,0.2c-0.6,0.2-1.5,0.5-1.7,1C31,23.6,31,24,31.2,24.4c0,0,0,0,0,0
	c0.1,0.2,2,4.5,6.2,5.2C37.8,29.7,38.1,30.1,37.9,30.6L37.9,30.6z"/>
</svg>
