<?xml version="1.0" encoding="utf-8"?>
<!-- Generator: Adobe Illustrator 24.2.1, SVG Export Plug-In . SVG Version: 6.00 Build 0)  -->
<svg version="1.1" id="Calque_1" xmlns="http://www.w3.org/2000/svg" xmlns:xlink="http://www.w3.org/1999/xlink" x="0px" y="0px"
	 viewBox="0 0 45 44.7" style="enable-background:new 0 0 45 44.7;" xml:space="preserve">
<style type="text/css">
	.st0{fill:#FFFFFF;}
</style>
<path class="st0" d="M45.5,22.4c0,12.7-10.3,23-23,23c-2.4,0-4.7-0.4-6.8-1c0.9-1.5,2.3-4,2.9-6c0.3-1.1,1.4-5.5,1.4-5.5
	c0.8,1.4,2.9,2.6,5.3,2.6c6.9,0,11.9-6.4,11.9-14.3C37.2,13.6,31,7.9,23,7.9c-9.9,0-15.2,6.7-15.2,13.9c0,3.4,1.8,7.6,4.7,8.9
	c0.4,0.2,0.7,0.1,0.8-0.3c0.1-0.3,0.5-1.9,0.6-2.6c0.1-0.2,0-0.4-0.2-0.7C12.8,26,12,23.9,12,21.9c0-5.1,3.8-10,10.4-10
	c5.6,0,9.6,3.8,9.6,9.4c0,6.2-3.1,10.5-7.2,10.5c-2.3,0-4-1.9-3.4-4.2c0.6-2.7,1.9-5.7,1.9-7.7c0-1.8-0.9-3.2-2.9-3.2
	c-2.3,0-4.2,2.4-4.2,5.6c0,2,0.7,3.4,0.7,3.4s-2.3,9.6-2.7,11.4c-0.5,2-0.3,4.8-0.1,6.6C5.6,40.4-0.5,32.1-0.5,22.4
	c0-12.7,10.3-23,23-23S45.5,9.7,45.5,22.4z"/>
</svg>
