<?xml version="1.0" encoding="utf-8"?>
<!-- Generator: Adobe Illustrator 24.2.1, SVG Export Plug-In . SVG Version: 6.00 Build 0)  -->
<svg version="1.1" id="Calque_1" xmlns="http://www.w3.org/2000/svg" xmlns:xlink="http://www.w3.org/1999/xlink" x="0px" y="0px"
	 viewBox="0 0 45 44.7" style="enable-background:new 0 0 45 44.7;" xml:space="preserve">
<path d="M40.6-0.6H4.4c-2.7,0-4.9,2.2-4.9,4.9v36.1c0,2.7,2.2,4.9,4.9,4.9h36.1c2.7,0,4.9-2.2,4.9-4.9V4.3
	C45.5,1.6,43.3-0.6,40.6-0.6z M35.6,15.7c0,0.3,0,0.6,0,0.9c0,8.9-6.8,19.2-19.2,19.2c-3.8,0-7.4-1.1-10.3-3
	c0.5,0.1,1.1,0.1,1.6,0.1c3.2,0,6-1.1,8.4-2.9c-3-0.1-5.4-2-6.3-4.7c1,0.2,2,0.2,3-0.1c-3.1-0.6-5.4-3.3-5.4-6.6v-0.1
	c0.9,0.5,1.9,0.8,3,0.9c-1.9-1.2-3-3.4-3-5.6c0-1.3,0.3-2.4,0.9-3.4c3.3,4.1,8.3,6.8,13.9,7c-1-4.6,2.5-8.3,6.6-8.3
	c1.9,0,3.7,0.8,4.9,2.1c1.5-0.3,3-0.9,4.3-1.6c-0.5,1.6-1.6,2.9-3,3.7c1.4-0.1,2.7-0.5,3.9-1C38,13.5,36.9,14.7,35.6,15.7z"/>
</svg>
